<?xml version="1.0" encoding="UTF-8" standalone="no"?>
<svg
   version="1.1"
   width="1200"
   height="1200"
   id="svg14"
   sodipodi:docname="96fc3609-309c-4034-ad02-cf3ca023e379-1.svg"
   inkscape:version="1.4.2 (ebf0e940, 2025-05-08)"
   xmlns:inkscape="http://www.inkscape.org/namespaces/inkscape"
   xmlns:sodipodi="http://sodipodi.sourceforge.net/DTD/sodipodi-0.dtd"
   xmlns="http://www.w3.org/2000/svg"
   xmlns:svg="http://www.w3.org/2000/svg">
  <defs
     id="defs14" />
  <sodipodi:namedview
     id="namedview14"
     pagecolor="#ffffff"
     bordercolor="#000000"
     borderopacity="0.25"
     inkscape:showpageshadow="2"
     inkscape:pageopacity="0.0"
     inkscape:pagecheckerboard="0"
     inkscape:deskcolor="#d1d1d1"
     inkscape:zoom="0.17425791"
     inkscape:cx="545.16895"
     inkscape:cy="677.15722"
     inkscape:window-width="896"
     inkscape:window-height="705"
     inkscape:window-x="0"
     inkscape:window-y="25"
     inkscape:window-maximized="0"
     inkscape:current-layer="svg14">
    <inkscape:page
       x="0"
       y="0"
       width="1200"
       height="1200"
       id="page2"
       margin="0"
       bleed="0" />
  </sodipodi:namedview>
  <path
     d="M 648.41406,234.94922 C 672.04868,251.88584 690.97622,273.89695 702,301 c 0.42539,0.99516 0.85078,1.99031 1.28906,3.01563 C 718.0962,340.17048 719.79387,382.86638 708,420 c -0.50274,1.69576 -0.50274,1.69576 -1.01563,3.42578 C 697.06944,455.37001 680.13024,482.12888 654,503 c -1.11307,0.91404 -2.22501,1.82946 -3.33594,2.74609 C 631.85938,521.17711 611.75296,534.12352 590,545 c 0.69408,-0.0606 1.38816,-0.12117 2.10327,-0.18359 15.53151,-1.30676 31.01211,-2.04432 46.59769,-2.11597 1.7592,-0.009 3.5184,-0.022 5.27752,-0.041 29.2417,-0.28227 50.9924,9.90498 76.02152,23.94311 21.98792,12.32018 44.32293,24.67568 70,26.39746 0.90492,0.10055 1.80984,0.20109 2.74218,0.30469 13.79354,0.93452 25.71336,-6.66035 35.875,-15.28125 5.75057,-5.06621 11.14909,-10.4287 16.38282,-16.02344 0.82371,-0.85851 1.64742,-1.71703 2.49609,-2.60156 6.64215,-7.43645 10.38066,-15.98087 14.41748,-24.98389 10.84557,-24.10396 10.84557,-24.10396 22.64111,-28.76221 4.52539,-1.20725 8.81104,-1.05784 13.44532,-0.65234 0.88687,0.0709 1.77375,0.1418 2.6875,0.21484 14.08047,1.82146 25.31699,10.45376 33.8125,21.34766 15.96678,22.1837 23.01289,46.6243 26.5,73.4375 0.17281,1.19166 0.34563,2.38332 0.52368,3.61109 1.902,14.00795 1.83188,28.04326 1.79397,42.15749 -0.005,2.06549 -0.007,4.13098 -0.009,6.19648 -0.0278,21.7944 -0.7596,43.37866 -3.30899,65.03494 -0.11747,1.04092 -0.23493,2.08184 -0.35596,3.1543 -2.30744,19.89707 -6.30704,39.8308 -12.64404,58.8457 -0.30922,0.93425 -0.61843,1.8685 -0.93701,2.83106 -9.16842,27.3615 -21.60263,51.70036 -41.06299,73.16894 -0.53303,0.59329 -1.06606,1.18658 -1.61524,1.79785 -5.4867,6.0889 -10.94566,12.13714 -17.25976,17.38574 -2.23883,1.91371 -4.3636,3.92982 -6.49561,5.96094 -30.85758,29.22084 -71.29834,50.74695 -110.62939,65.85547 -1.00209,0.38495 -2.00417,0.76989 -3.03662,1.16651 -37.07923,14.08243 -75.61241,23.69458 -114.96466,28.58349 -1.92746,0.24109 -3.85351,0.49338 -5.77948,0.74609 -44.38167,5.59905 -92.01244,4.991 -136.21924,-1.49609 -1.72936,-0.24025 -1.72936,-0.24025 -3.49365,-0.48535 -6.88,-0.96832 -13.69681,-2.137 -20.50635,-3.51465 -1.00644,-0.20319 -2.01287,-0.40638 -3.04981,-0.61572 -42.5434,-8.79914 -83.80315,-24.05502 -119.95019,-48.38428 -0.64405,-0.43167 -1.2881,-0.86335 -1.95166,-1.3081 -47.07293,-31.83358 -77.47409,-80.53998 -88.48902,-135.97852 -3.28723,-17.22785 -4.94582,-36.57396 -0.55932,-53.71338 0.16709,-0.70528 0.33419,-1.41056 0.50635,-2.13721 10.12639,-42.18043 36.85548,-81.55777 64.97802,-113.94873 2.4193,-2.80248 4.7556,-5.6562 7.07813,-8.53906 3.03732,-3.73575 6.17914,-7.33047 9.4375,-10.875 4.00797,-4.36506 7.82006,-8.83635 11.53906,-13.44922 1.79374,-2.22367 3.59966,-4.43276 5.42188,-6.63281 15.97866,-19.35164 30.25085,-39.19673 41.28906,-61.79297 0.49073,-0.99354 0.98146,-1.98709 1.48706,-3.01074 0.44255,-0.93232 0.8851,-1.86463 1.34106,-2.8252 0.5941,-1.24209 0.5941,-1.24209 1.2002,-2.50927 0.83821,-2.64793 0.81108,-3.74261 -0.27832,-6.27979 -1.38681,-1.71827 -1.38681,-1.71827 -3.17578,-3.29297 -0.65775,-0.62205 -1.31549,-1.2441 -1.99317,-1.88501 -0.70737,-0.66314 -1.41474,-1.32628 -2.14355,-2.00952 -9.01559,-8.7115 -17.06474,-18.42485 -22.61328,-29.73828 -1.77764,-3.32229 -1.77764,-3.32229 -5.07032,-4.01953 -1.13566,-0.0593 -2.27132,-0.1186 -3.4414,-0.17969 -6.49957,-0.60382 -11.734,-2.20891 -17.72266,-4.75391 -4.25231,-1.67869 -8.11168,-2.25108 -12.66748,-2.17114 -0.93222,0.013 -1.86445,0.026 -2.82492,0.0393 -0.99895,0.0177 -1.99791,0.0354 -3.02713,0.0537 -2.14843,0.0224 -4.29687,0.0439 -6.44531,0.0644 -3.36129,0.0369 -6.72205,0.0796 -10.08301,0.13941 -18.22603,0.3088 -36.71382,-0.0934 -51.46387,-12.49292 -5.16943,-5.01304 -8.57688,-8.66522 -8.82812,-16.06641 0.14099,-4.83228 0.81409,-7.59406 4.27734,-11 8.5846,-6.51765 20.23287,-13.6875 31.22266,-13.6875 0,-0.66 0,-1.32 0,-2 -0.69223,-0.22945 -1.38446,-0.45891 -2.09766,-0.69531 -3.53018,-1.58692 -6.35121,-3.76644 -9.33984,-6.17969 -0.60473,-0.48251 -1.20947,-0.96502 -1.83252,-1.46216 -6.71519,-5.39418 -13.28161,-10.95312 -19.72998,-16.66284 -0.76055,-0.66258 -1.5211,-1.32516 -2.30469,-2.00781 -8.97897,-8.32989 -15.79381,-19.85582 -20.69531,-30.99219 -0.55108,-1.19303 -0.55108,-1.19303 -1.11328,-2.41015 -4.74198,-10.88068 -7.02807,-24.33038 -4.01172,-35.96485 4.66422,-5.76168 10.98463,-9.71664 18.125,-11.625 12.77547,-1.29265 24.42341,1.91591 35.97754,7.10156 2.52721,1.12267 5.06755,2.21323 7.6084,3.30469 2.05485,0.88503 4.10954,1.77045 6.16406,2.65625 0.98275,0.42354 1.9655,0.84708 2.97802,1.28345 4.27113,1.85545 8.50736,3.73374 12.6626,5.83765 4.66102,2.35937 8.48439,4.10536 13.79688,4.1289 0.8598,0.0168 1.71961,0.0335 2.60547,0.0508 9.24926,-1.04772 17.55919,-5.13108 25.89453,-9.05078 1.14323,-0.53383 2.28647,-1.06767 3.46435,-1.61768 21.69815,-10.10033 21.69815,-10.10033 39.08618,-26.10717 10.77094,-12.98194 23.05435,-24.75827 36.76197,-34.58765 0.53496,-0.39526 1.06992,-0.79052 1.62109,-1.19775 23.55739,-17.30791 50.02218,-27.72092 78.37891,-33.80225 0.79398,-0.18103 1.58796,-0.36206 2.406,-0.54858 40.04733,-6.96906 89.89065,6.77161 123.0084,29.49786 z"
     fill="#fbdb02"
     id="path2" />
  <path
     d="m 404,549 c -0.51659,5.85216 -2.23384,10.31379 -4.8125,15.5625 -0.39961,0.82734 -0.79922,1.65467 -1.21094,2.50708 -3.9305,8.03154 -8.22598,15.85438 -12.54687,23.68042 -11.31636,20.53388 -22.16045,41.34803 -32.86573,62.20557 -1.00408,1.95455 -2.01129,3.9075 -3.02246,5.85839 -21.18935,40.91968 -43.11641,84.31078 -29.71191,131.08057 C 325.02632,806.0058 332.86769,820.21925 344,833 c 0.73219,0.84176 1.46438,1.68352 2.21875,2.55078 7.1388,8.05559 14.49393,15.38228 22.89453,22.12109 2.81695,2.27186 5.56954,4.60641 8.32422,6.95313 30.43586,25.29785 64.08308,44.62044 101.5625,57.375 1.32846,0.47431 2.65657,0.94962 3.98437,1.42578 27.08804,9.55957 55.73532,14.56965 84.20313,17.82422 0.72322,0.0831 1.44645,0.16617 2.19159,0.25177 C 642.15631,949.75357 718.40541,943.05601 788,920 c 0.96809,-0.3155 1.93617,-0.631 2.93359,-0.95605 27.94978,-9.1491 55.85035,-20.71755 80.78003,-36.45459 C 875.82081,880 875.82081,880 878,880 c 0,0.66 0,1.32 0,2 -2.04648,1.771 -4.09968,3.42571 -6.25,5.0625 -0.95628,0.73755 -0.95628,0.73755 -1.93188,1.48999 -1.9348,1.48858 -3.87634,2.96806 -5.81812,4.44751 -1.01449,0.78375 -2.02898,1.5675 -3.07422,2.375 -60.04502,45.87341 -135.47265,71.12518 -209.92706,80.375 -1.92746,0.24109 -3.85351,0.49338 -5.77948,0.74609 C 600.83757,982.09514 553.2068,981.48708 509,975 c -1.72936,-0.24025 -1.72936,-0.24025 -3.49365,-0.48535 C 498.62636,973.54633 491.80955,972.37765 485,971 c -1.50965,-0.30478 -1.50965,-0.30478 -3.04981,-0.61572 C 439.4068,961.58514 398.14705,946.32926 362,922 c -0.64405,-0.43167 -1.2881,-0.86335 -1.95166,-1.30811 C 312.97542,888.85832 282.57426,840.15192 271.55933,784.71338 268.27209,767.48553 266.61351,748.13942 271,731 c 0.16709,-0.70528 0.33419,-1.41056 0.50635,-2.13721 10.12639,-42.18043 36.85549,-81.55777 64.97802,-113.94873 2.4193,-2.80248 4.7556,-5.6562 7.07813,-8.53906 3.82542,-4.70506 7.86392,-9.17069 11.97656,-13.625 2.39339,-2.67451 4.61693,-5.43018 6.83594,-8.25 4.52649,-5.59856 9.64742,-10.31156 15.02051,-15.06006 1.6624,-1.49191 3.28862,-3.01602 4.90918,-4.55322 C 399.08262,549 399.08262,549 404,549 Z"
     fill="#fbc202"
     id="path3" />
  <path
     d="m 398,285 c 0.99,0.33 1.98,0.66 3,1 -0.47627,0.76292 -0.47627,0.76292 -0.96216,1.54126 -1.45515,2.33732 -2.90278,4.67921 -4.35034,7.02124 -0.49951,0.79986 -0.99902,1.59973 -1.51367,2.42383 -15.90492,25.806 -10.83889,60.27174 -4.75781,88.60742 1.10065,4.53514 2.72445,8.81862 4.4121,13.16797 C 401.48221,419.9125 395.74657,437.29253 387,457 c -1.72001,1.72001 -3.89928,1.25404 -6.25,1.3125 -7.82888,-0.0558 -14.579,-2.45259 -21.87676,-5.07745 -6.50396,-2.17518 -12.22192,-2.58383 -19.04121,-2.38739 -2.13216,0.0282 -4.26432,0.0562 -6.39648,0.084 -3.30626,0.0619 -6.61223,0.13062 -9.91822,0.20532 -18.17603,0.3787 -36.47085,-0.0102 -51.18921,-12.38305 -5.16943,-5.01304 -8.57688,-8.66523 -8.82812,-16.06641 0.14099,-4.83228 0.81409,-7.59406 4.27734,-11 C 276.36194,405.16985 288.01021,398 299,398 c 0,-0.66 0,-1.32 0,-2 -0.69223,-0.22945 -1.38445,-0.45891 -2.09766,-0.69531 -3.53017,-1.58692 -6.35121,-3.76644 -9.33984,-6.17969 -0.60473,-0.48251 -1.20946,-0.96502 -1.83252,-1.46216 C 279.01479,382.26866 272.44837,376.70972 266,371 c -0.76055,-0.66258 -1.52109,-1.32516 -2.30469,-2.00781 C 254.71634,360.6623 247.90151,349.13637 243,338 c -0.36738,-0.79535 -0.73477,-1.5907 -1.11328,-2.41016 -4.74197,-10.88067 -7.02806,-24.33037 -4.01172,-35.96484 4.66422,-5.76168 10.98463,-9.71664 18.125,-11.625 12.77547,-1.29266 24.42341,1.9159 35.97754,7.10156 2.52721,1.12267 5.06755,2.21323 7.6084,3.30469 2.05485,0.88502 4.10954,1.77045 6.16406,2.65625 0.98275,0.42354 1.9655,0.84708 2.97803,1.28345 4.27113,1.85545 8.50735,3.73374 12.66259,5.83764 4.66102,2.35938 8.4844,4.10537 13.79688,4.12891 0.8598,0.0168 1.71961,0.0335 2.60547,0.0508 9.2495,-1.04775 17.55878,-5.13153 25.89453,-9.05078 1.71268,-0.79858 1.71268,-0.79858 3.45996,-1.61328 14.492,-6.66499 14.492,-6.66499 28.05566,-14.98047 C 396.12609,286.15156 397.04906,285.58438 398,285 Z"
     fill="#fe4a01"
     id="path4" />
  <path
     d="m 518.9375,638.5625 c 0.87882,0.007 1.75764,0.0137 2.66309,0.0208 6.48858,0.16083 11.74803,1.06497 17.39941,4.41675 0.72316,0.40863 1.44633,0.81727 2.19141,1.23828 1.99358,1.18587 3.90378,2.43906 5.80859,3.76172 0.86625,0.59812 1.7325,1.19625 2.625,1.8125 8.50827,7.83656 13.72478,18.74536 14.61328,30.28125 0.32452,14.89384 -3.90258,26.14111 -13.86328,37.09375 -9.04079,8.69374 -20.87555,12.22176 -33.16797,12.18042 C 507.42335,729.13075 498.83713,725.79266 491,720 c -0.59297,-0.41766 -1.18594,-0.83531 -1.79688,-1.26563 -8.75124,-6.73768 -13.89084,-16.97347 -15.70312,-27.6914 -1.53723,-13.2426 1.35949,-25.07855 9.47266,-35.60156 9.53906,-11.32239 21.18294,-17.05637 35.96484,-16.87891 z"
     fill="#fbef5a"
     id="path6" />
  <path
     d="m 565.8125,331.6875 c 9.45837,6.95928 15.5076,15.80602 17.80078,27.41797 1.57264,11.77092 -0.76081,22.50856 -7.54297,32.35547 -6.51111,7.98533 -15.77502,14.49472 -26.18408,15.80517 C 537.77091,408.20369 526.82833,406.72226 517,399 c -2.5625,-2.375 -2.5625,-2.375 -5,-5 -1.2375,-1.26844 -1.2375,-1.26844 -2.5,-2.5625 -6.24048,-7.72161 -8.89005,-17.64963 -8.5,-27.4375 1.39122,-12.91229 6.46217,-22.92176 16.46484,-31.27734 14.83296,-10.0791 33.07335,-10.47316 48.34766,-1.03516 z"
     fill="#fbf259"
     id="path7" />
  <path
     d="m 485.59375,265.96875 c 9.36885,4.01522 17.33482,11.12361 21.71875,20.40625 0.59353,1.52999 1.15546,3.07256 1.6875,4.625 0.44666,1.22977 0.44666,1.22977 0.90234,2.48437 5.32094,16.57581 1.34307,34.14597 -5.90234,49.51563 -2.10919,3.53177 -4.45299,6.77341 -7,10 -0.4718,0.63551 -0.94359,1.27102 -1.42969,1.92578 C 489.41565,362.76689 478.93105,370.17558 469,372 c -11.73259,0.66677 -21.6541,0.41967 -31.09375,-7.29688 C 437.27719,364.14109 436.64812,363.57906 436,363 c -0.60844,-0.54141 -1.21688,-1.08281 -1.84375,-1.64063 -9.01347,-9.09253 -12.44762,-22.70363 -12.39844,-35.14868 C 422.07672,309.50208 426.92933,293.07067 439,281 c 0.33,0.66 0.66,1.32 1,2 -0.74219,1.76953 -0.74219,1.76953 -1.875,3.8125 -3.87735,7.47392 -4.35965,15.75504 -2,23.875 2.48925,6.52276 6.13148,10.7651 12.5,13.6875 2.75641,1.11223 5.47952,1.95681 8.375,2.625 -0.66,-0.99 -1.32,-1.98 -2,-3 -0.4366,-3.30572 -0.71043,-5.81419 1.05078,-8.75391 2.45,-2.99926 4.23745,-5.06128 8.15625,-5.48437 4.28502,-0.12206 7.03796,-0.17775 10.85547,1.92578 2.11173,2.52045 2.6671,4.06775 2.9375,7.3125 6.18065,-2.72676 9.28353,-8.33009 12.04687,-14.23828 C 493.35712,295.97084 492.81197,287.52377 489,279 c -3.13114,-5.72242 -6.7927,-8.61503 -12.75,-11.1875 -4.38247,-1.09562 -8.75298,-1.47478 -13.25,-1.8125 6.81873,-3.98024 15.41975,-2.48312 22.59375,-0.0312 z"
     fill="#fefdfb"
     id="path8" />
  <path
     d="m 484.75,271.6875 c 5.74261,5.90213 8.30358,12.78845 8.5625,20.9375 -0.16084,9.85503 -4.32891,17.06896 -10.41016,24.57422 C 481,319 481,319 478,319 c -0.43313,-0.94875 -0.86625,-1.8975 -1.3125,-2.875 -1.48052,-3.32542 -1.48052,-3.32542 -4.6875,-5.125 -3.39057,-0.54594 -6.60985,-0.55151 -10,0 -3.08799,2.25058 -3.08799,2.25058 -5,5 -0.33,0.33 -0.66,0.66 -1,1 -0.13568,3.66345 -0.16461,6.50616 1,10 -6.92641,-0.4329 -11.95089,-2.78934 -16.76953,-7.86328 C 434.60208,312.08412 433.1391,304.88232 434,296 c 2.21549,-10.90987 8.01927,-19.22784 17.20312,-25.37109 11.77346,-6.85689 22.1568,-5.93078 33.54688,1.05859 z"
     fill="#1b120f"
     id="path9" />
  <path
     d="m 603,554 c 5.03132,-0.0501 10.06248,-0.086 15.09399,-0.10986 1.70576,-0.01 3.4115,-0.0235 5.11719,-0.041 C 643.56441,553.64589 660.59883,556.95823 679,566 c 1.13051,0.54012 2.26102,1.08023 3.42578,1.63672 8.73897,4.22507 17.22185,8.88859 25.69922,13.61328 0.57884,0.32248 1.15768,0.64495 1.75406,0.9772 5.09331,2.83839 10.18452,5.68046 15.26303,8.54526 C 735.91252,596.84521 746.17326,602.28345 758,606 c 1.23918,0.49384 2.4774,0.99011 3.71484,1.48828 4.87469,1.84684 9.84978,2.74756 14.97266,3.63672 0.96374,0.17177 1.92747,0.34353 2.92041,0.52051 7.12237,1.23026 14.16269,2.08168 21.39209,2.35449 0,0.66 0,1.32 0,2 -10.38161,1.18145 -20.76122,1.21969 -31.19751,1.24023 -2.96635,0.01 -5.932,0.0408 -8.89819,0.0723 -30.95792,0.17359 -50.73494,-10.02869 -74.81202,-28.79981 C 670.62444,576.50632 654.77292,566.45766 635.5,561.875 c -1.0294,-0.25298 -2.05879,-0.50596 -3.11938,-0.7666 -7.53015,-1.80022 -15.07654,-3.18535 -22.75562,-4.17139 -1.88404,-0.25212 -3.75684,-0.58606 -5.625,-0.93701 -0.33,-0.66 -0.66,-1.32 -1,-2 z"
     fill="#fefef7"
     id="path10" />
  <path
     d="m 558.83984,215.56641 c 1.30332,-0.0114 2.60665,-0.0229 3.94946,-0.0347 1.38275,0.008 2.76548,0.0182 4.1482,0.0308 1.0492,0.005 1.0492,0.005 2.11959,0.009 10.16573,0.0657 19.37582,0.58704 28.94291,4.42828 1.12019,0.4125 2.24039,0.825 3.39453,1.25 24.47232,9.66808 47.86118,27.17641 63.54297,48.3125 0.51578,0.69255 1.03157,1.3851 1.56298,2.09864 4.75441,6.49634 8.74555,13.21899 12.49952,20.33886 0.54269,1.00547 1.08539,2.01094 1.64453,3.04688 C 693.74248,320.11536 698.34435,348.99233 698,377 c -0.33,0 -0.66,0 -1,0 -0.12528,-1.00152 -0.25057,-2.00304 -0.37964,-3.03491 -0.47992,-3.80592 -0.97846,-7.60924 -1.48194,-11.41211 -0.21322,-1.62925 -0.42174,-3.25912 -0.625,-4.88965 -1.83287,-14.65846 -5.01756,-28.70127 -10.82592,-42.35083 -0.29286,-0.69585 -0.58572,-1.3917 -0.88745,-2.10864 C 675.68898,296.74276 665.38906,281.9172 653,269 c -0.69481,-0.74636 -1.38961,-1.49273 -2.10547,-2.26171 -9.21319,-9.61595 -29.15966,-28.33698 -43.28614,-28.82007 -0.98967,0.018 -1.97935,0.0359 -2.99902,0.0544 -1.09506,0.014 -2.19012,0.028 -3.31836,0.0425 -1.16853,0.0156 -2.33707,0.0313 -3.54101,0.0474 -13.11969,0.0587 -24.61813,-0.87441 -37.1875,-4.8125 -0.74637,-0.22768 -1.49274,-0.45537 -2.26172,-0.68995 C 552.85825,230.72589 549.10073,227.99412 545,224 c 0.125,-2.3125 0.125,-2.3125 1,-5 4.35357,-2.71911 7.75274,-3.39127 12.83984,-3.43359 z"
     fill="#fefdf5"
     id="path11" />
  <path
     d="m 558.91016,215.60156 c 0.97313,-0.004 0.97313,-0.004 1.96593,-0.009 1.36903,-0.002 2.73809,0.003 4.10707,0.016 2.04993,0.0159 4.09784,2.2e-4 6.1477,-0.019 8.64204,-0.0117 16.54489,1.06587 24.86914,3.41016 -0.99,0.33 -1.98,0.66 -3,1 0,3.63 0,7.26 0,11 0.80438,0.0825 1.60875,0.165 2.4375,0.25 4.52185,0.95196 8.40953,2.7658 12.5625,4.75 -2.88483,1.63709 -4.96342,2.25536 -8.27343,2.26562 -0.81743,0.004 -1.63486,0.009 -2.47706,0.0132 -0.86608,-0.01 -1.73217,-0.019 -2.62451,-0.0288 -0.89831,-0.008 -1.79663,-0.0164 -2.72216,-0.0249 -10.92204,-0.18161 -20.92448,-1.69379 -31.34034,-4.97509 -1.11882,-0.34152 -1.11882,-0.34152 -2.26025,-0.68994 C 552.85878,230.72681 549.10108,227.99446 545,224 c 0.125,-2.3125 0.125,-2.3125 1,-5 4.38251,-2.74544 7.78659,-3.3838 12.91016,-3.39844 z"
     fill="#fefbc1"
     id="path12" />
  <path
     d="m 901,515 c 8.53661,5.46343 11.7595,14.12514 14.3125,23.5625 0.26361,0.90685 0.52723,1.81371 0.79883,2.74805 1.41188,5.0571 2.19821,9.44161 1.88867,14.68945 -11.31014,-3.05679 -22.73399,-10.3858 -30.125,-19.5 -2.222,-4.14773 -2.85821,-6.90868 -1.875,-11.5 2.93238,-7.45747 6.81352,-11.12917 15,-10 z"
     fill="#fefef8"
     id="path13" />
  <path
     d="m 695,344 c 0.33,0 0.66,0 1,0 1.42033,11.071 2.2965,21.8319 2,33 -0.33,0 -0.66,0 -1,0 -0.59792,-3.91294 -1.18559,-7.82728 -1.76392,-11.74316 -0.29531,-1.98486 -0.59866,-3.96852 -0.9021,-5.95215 -0.18369,-1.25039 -0.36738,-2.50078 -0.55664,-3.78907 -0.17281,-1.1521 -0.34563,-2.30419 -0.52368,-3.49121 C 693.02439,349.29086 693.05988,347.54654 694,345 c 0.33,-0.33 0.66,-0.66 1,-1 z"
     fill="#fdf4ac"
     id="path14" />
</svg>
