<?xml version="1.0" encoding="UTF-8" standalone="no"?>
<!-- Created with Inkscape (http://www.inkscape.org/) -->

<svg
   xmlns:dc="http://purl.org/dc/elements/1.1/"
   xmlns:cc="http://creativecommons.org/ns#"
   xmlns:rdf="http://www.w3.org/1999/02/22-rdf-syntax-ns#"
   xmlns:svg="http://www.w3.org/2000/svg"
   xmlns="http://www.w3.org/2000/svg"
   xmlns:sodipodi="http://sodipodi.sourceforge.net/DTD/sodipodi-0.dtd"
   xmlns:inkscape="http://www.inkscape.org/namespaces/inkscape"
   version="1.1"
   id="svg14773"
   xml:space="preserve"
   width="800"
   height="800"
   viewBox="0 0 800 800"
   sodipodi:docname="norway-flag-heart-svg.svg"
   inkscape:version="0.92.4 (5da689c313, 2019-01-14)"><metadata
     id="metadata14779"><rdf:RDF><cc:Work
         rdf:about=""><dc:format>image/svg+xml</dc:format><dc:type
           rdf:resource="http://purl.org/dc/dcmitype/StillImage" /><dc:title></dc:title></cc:Work></rdf:RDF></metadata><defs
     id="defs14777"><clipPath
       clipPathUnits="userSpaceOnUse"
       id="clipPath14789"><path
         d="M 0,600 H 600 V 0 H 0 Z"
         id="path14787"
         inkscape:connector-curvature="0" /></clipPath></defs><sodipodi:namedview
     pagecolor="#ffffff"
     bordercolor="#666666"
     borderopacity="1"
     objecttolerance="10"
     gridtolerance="10"
     guidetolerance="10"
     inkscape:pageopacity="0"
     inkscape:pageshadow="2"
     inkscape:window-width="724"
     inkscape:window-height="480"
     id="namedview14775"
     showgrid="false"
     inkscape:zoom="0.295"
     inkscape:cx="400"
     inkscape:cy="400"
     inkscape:window-x="0"
     inkscape:window-y="0"
     inkscape:window-maximized="0"
     inkscape:current-layer="g14781" /><g
     id="g14781"
     inkscape:groupmode="layer"
     inkscape:label="I-love-Norway-publicdomainvectors.org"
     transform="matrix(1.3333333,0,0,-1.3333333,0,800)"><g
       id="g14783"><g
         id="g14785"
         clip-path="url(#clipPath14789)"><path
           d="m 183.527,380.33 v 13.15 c -6.796,-3.923 -13.691,-7.904 -20.569,-11.876 6.884,4.365 13.775,8.734 20.569,13.041 v 12.593 c -10.405,-6.008 -21.136,-12.203 -31.859,-18.395 10.762,6.947 21.523,13.89 31.859,20.56 l 0.001,29.329 c -17.401,-10.045 -36.473,-21.057 -55.465,-32.022 19.318,12.507 38.638,25.016 55.465,35.91 v 10.952 c -10.239,-5.911 -21.105,-12.185 -31.55,-18.216 10.551,6.67 21.318,13.477 31.55,19.946 v 19.236 c -18.533,-10.7 -41.209,-23.792 -63.889,-36.887 22.836,14.824 45.668,29.647 63.889,41.474 v 10.015 c -14.57,-8.412 -32.13,-18.549 -49.314,-28.471 17.411,11.187 36.196,23.257 49.314,31.685 v 8.416 c -11.417,-6.592 -28.146,-16.25 -43.011,-24.833 15.341,9.925 34.545,22.35 43.011,27.827 v 7.609 c -6.111,-3.528 -38.033,-21.959 -69.896,-40.355 27.275,18.494 55.53,37.65 55.53,37.65 0.901,0.611 1.39,1.606 1.39,2.623 0,0.574 -0.156,1.156 -0.483,1.677 -0.905,1.445 -2.79,1.913 -4.265,1.061 0,0 -36.283,-20.947 -71.447,-41.249 24.91,17.866 49.846,35.75 49.846,35.75 0.859,0.616 1.32,1.588 1.32,2.575 0,0.589 -0.164,1.184 -0.505,1.713 -0.915,1.418 -2.782,1.87 -4.243,1.026 0,0 -20.708,-11.956 -41.264,-23.823 11.242,8.966 23.192,18.496 23.192,18.496 0.78,0.622 1.192,1.544 1.192,2.477 0,0.616 -0.18,1.237 -0.55,1.781 -0.934,1.369 -2.764,1.787 -4.199,0.958 L 78.991,490.548 c -1.514,-0.873 -2.033,-2.809 -1.159,-4.323 0.874,-1.514 2.811,-2.032 4.325,-1.159 0,0 3.001,1.733 3.583,2.07 -11.24,-8.965 -23.189,-18.495 -23.189,-18.495 -0.78,-0.622 -1.191,-1.543 -1.191,-2.476 0,-0.616 0.178,-1.237 0.55,-1.781 0.932,-1.368 2.763,-1.787 4.197,-0.959 0,0 13.174,7.606 22.272,12.858 -24.91,-17.865 -49.846,-35.75 -49.846,-35.75 -0.86,-0.616 -1.321,-1.587 -1.321,-2.575 0,-0.588 0.165,-1.184 0.506,-1.713 0.914,-1.418 2.781,-1.869 4.241,-1.026 0,0 26.536,15.32 51.131,29.519 -27.283,-18.497 -55.54,-37.656 -55.54,-37.656 -0.902,-0.611 -1.389,-1.606 -1.389,-2.623 0,-0.574 0.156,-1.156 0.482,-1.678 0.905,-1.443 2.79,-1.912 4.265,-1.06 0,0 23.644,13.651 38.608,22.29 -20.304,-13.136 -47.372,-30.65 -47.372,-30.65 -0.935,-0.604 -1.447,-1.62 -1.447,-2.66 0,-0.563 0.151,-1.133 0.465,-1.649 0.897,-1.463 2.796,-1.947 4.283,-1.089 0,0 28.738,16.592 49.589,28.631 -30.956,-19.891 -66.281,-42.589 -66.281,-42.589 -0.94,-0.604 -1.453,-1.622 -1.453,-2.666 0,-0.562 0.149,-1.13 0.461,-1.644 0.894,-1.468 2.798,-1.953 4.286,-1.094 0,0 47.164,27.23 94.044,54.296 C 70.485,413.289 24.886,383.688 16.028,377.937 v -6.821 c 0.594,-0.033 1.204,0.1 1.756,0.418 0,0 28.117,16.234 40.89,23.609 -9.491,-5.895 -33.855,-21.028 -33.855,-21.028 -0.964,-0.599 -1.495,-1.633 -1.495,-2.692 0,-0.554 0.145,-1.114 0.45,-1.624 0.888,-1.483 2.801,-1.978 4.298,-1.114 0,0 41.112,23.735 76.074,43.921 C 76.842,395.345 48.077,377.159 30.935,366.322 h 14.134 c 21.01,12.13 51.91,29.971 82.811,47.812 -26.845,-17.38 -53.694,-34.765 -73.847,-47.812 h 16.738 c 1.979,1.142 3.855,2.226 5.587,3.227 -1.561,-0.966 -3.323,-2.054 -5.219,-3.227 h 28.797 c 15.399,8.891 32.182,18.581 48.962,28.269 -14.987,-9.671 -29.97,-19.341 -43.805,-28.269 h 20.228 c 6.327,3.654 12.739,7.355 19.117,11.038 -5.819,-3.69 -11.643,-7.382 -17.41,-11.038 h 22.121 c 2.762,1.595 5.53,3.193 8.297,4.791 -2.489,-1.598 -4.979,-3.196 -7.464,-4.791 h 11.721 c 7.339,4.711 14.651,9.405 21.824,14.008"
           style="fill:#e43946;fill-opacity:1;fill-rule:nonzero;stroke:none"
           id="path14791"
           inkscape:connector-curvature="0" /><path
           d="m 567.609,434.344 c 0.978,0.597 1.52,1.638 1.52,2.707 0,0.549 -0.145,1.105 -0.444,1.611 -0.885,1.492 -2.804,1.994 -4.305,1.127 0,0 -72.923,-42.102 -125.106,-72.23 40.181,24.198 104.025,62.648 104.025,62.648 0.985,0.593 1.533,1.64 1.533,2.714 0,0.546 -0.143,1.1 -0.439,1.605 -0.883,1.495 -2.805,2.002 -4.31,1.134 0,0 -64.55,-37.268 -120.097,-69.338 h 36.008 c 61.725,37.617 111.615,68.022 111.615,68.022"
           style="fill:#e43946;fill-opacity:1;fill-rule:nonzero;stroke:none"
           id="path14793"
           inkscape:connector-curvature="0" /><path
           d="m 178.221,167.773 c -0.981,-0.594 -1.524,-1.637 -1.524,-2.709 0,-0.548 0.142,-1.103 0.443,-1.61 0.883,-1.492 2.804,-1.996 4.305,-1.129 0,0 0.716,0.414 2.082,1.201 v 7.466 c -3.407,-2.067 -5.306,-3.219 -5.306,-3.219"
           style="fill:#e43946;fill-opacity:1;fill-rule:nonzero;stroke:none"
           id="path14795"
           inkscape:connector-curvature="0" /><path
           d="m 552.008,412.29 c 0.984,0.595 1.529,1.64 1.529,2.713 0,0.546 -0.142,1.102 -0.44,1.606 -0.882,1.495 -2.804,2 -4.308,1.132 0,0 -39.297,-22.687 -89.06,-51.419 h 16.182 c 39.417,23.812 76.097,45.968 76.097,45.968"
           style="fill:#e43946;fill-opacity:1;fill-rule:nonzero;stroke:none"
           id="path14797"
           inkscape:connector-curvature="0" /><path
           d="m 119.818,204.176 c -0.973,-0.597 -1.512,-1.637 -1.512,-2.702 0,-0.551 0.144,-1.109 0.445,-1.616 0.886,-1.489 2.803,-1.99 4.303,-1.123 0,0 25.635,14.801 60.473,34.913 v 9.562 c -38.404,-23.53 -63.709,-39.034 -63.709,-39.034"
           style="fill:#e43946;fill-opacity:1;fill-rule:nonzero;stroke:none"
           id="path14799"
           inkscape:connector-curvature="0" /><path
           d="m 573.508,395.992 c 0,0 -21.406,-12.359 -51.39,-29.67 h 15.146 c 24.151,14.822 39.482,24.232 39.482,24.232 0.972,0.596 1.51,1.635 1.51,2.7 0,0.551 -0.145,1.109 -0.446,1.616 -0.886,1.488 -2.803,1.988 -4.302,1.122"
           style="fill:#e43946;fill-opacity:1;fill-rule:nonzero;stroke:none"
           id="path14801"
           inkscape:connector-curvature="0" /><path
           d="m 306.615,419.193 c 0.956,0.599 1.482,1.629 1.482,2.682 0,0.557 -0.148,1.121 -0.456,1.631 -0.89,1.477 -2.8,1.97 -4.293,1.108 0,0 -3.022,-1.746 -8.155,-4.709 v -7.891 c 7.206,4.529 11.422,7.179 11.422,7.179"
           style="fill:#e43946;fill-opacity:1;fill-rule:nonzero;stroke:none"
           id="path14803"
           inkscape:connector-curvature="0" /><path
           d="m 168.932,173.45 c -0.971,-0.596 -1.508,-1.636 -1.508,-2.699 0,-0.551 0.144,-1.11 0.447,-1.619 0.887,-1.486 2.803,-1.986 4.302,-1.119 0,0 4.181,2.414 11.354,6.554 v 7.865 c -9.312,-5.73 -14.595,-8.982 -14.595,-8.982"
           style="fill:#e43946;fill-opacity:1;fill-rule:nonzero;stroke:none"
           id="path14805"
           inkscape:connector-curvature="0" /><path
           d="m 295.193,251.146 v -12.108 c 3.265,1.885 6.508,3.757 9.713,5.608 -3.199,-1.942 -6.444,-3.911 -9.713,-5.894 v -10.755 c 14.802,8.546 30.344,17.519 46.175,26.659 h -40.469 c -1.911,-1.176 -3.814,-2.345 -5.706,-3.51"
           style="fill:#e43946;fill-opacity:1;fill-rule:nonzero;stroke:none"
           id="path14807"
           inkscape:connector-curvature="0" /><path
           d="m 551.529,446.115 c 0.985,0.594 1.529,1.64 1.529,2.713 0,0.547 -0.142,1.102 -0.441,1.606 -0.883,1.496 -2.804,2 -4.308,1.131 0,0 -66.536,-38.414 -147.646,-85.243 h 18.802 c 62.252,37.614 132.064,79.793 132.064,79.793"
           style="fill:#e43946;fill-opacity:1;fill-rule:nonzero;stroke:none"
           id="path14809"
           inkscape:connector-curvature="0" /><path
           d="m 86.377,237.78 c -0.976,-0.595 -1.515,-1.637 -1.515,-2.703 0,-0.55 0.143,-1.108 0.444,-1.614 0.885,-1.489 2.803,-1.991 4.305,-1.125 0,0 14.75,8.516 38.655,22.318 H 113.985 C 96.677,244.076 86.377,237.78 86.377,237.78"
           style="fill:#e43946;fill-opacity:1;fill-rule:nonzero;stroke:none"
           id="path14811"
           inkscape:connector-curvature="0" /><path
           d="m 68.525,241.652 c -0.979,-0.594 -1.521,-1.637 -1.521,-2.708 0,-0.548 0.142,-1.103 0.442,-1.609 0.884,-1.493 2.804,-1.996 4.306,-1.129 0,0 11.979,6.917 31.956,18.45 H 89.928 C 76.504,246.499 68.525,241.652 68.525,241.652"
           style="fill:#e43946;fill-opacity:1;fill-rule:nonzero;stroke:none"
           id="path14813"
           inkscape:connector-curvature="0" /><path
           d="m 142.276,196.086 c -0.987,-0.595 -1.534,-1.641 -1.534,-2.715 0,-0.547 0.143,-1.1 0.44,-1.604 0.881,-1.496 2.804,-2.002 4.308,-1.134 0,0 14.611,8.435 38.037,21.96 v 8.336 c -23.071,-13.894 -41.251,-24.843 -41.251,-24.843"
           style="fill:#e43946;fill-opacity:1;fill-rule:nonzero;stroke:none"
           id="path14815"
           inkscape:connector-curvature="0" /><path
           d="m 157.669,191.928 c -0.976,-0.594 -1.518,-1.637 -1.518,-2.705 0,-0.55 0.144,-1.105 0.444,-1.612 0.884,-1.492 2.803,-1.994 4.305,-1.127 0,0 8.958,5.173 22.627,13.064 v 8.138 c -16.149,-9.84 -25.858,-15.758 -25.858,-15.758"
           style="fill:#e43946;fill-opacity:1;fill-rule:nonzero;stroke:none"
           id="path14817"
           inkscape:connector-curvature="0" /><path
           d="m 59.509,248.957 c -0.977,-0.596 -1.517,-1.638 -1.517,-2.705 0,-0.55 0.142,-1.106 0.444,-1.612 0.884,-1.493 2.802,-1.994 4.304,-1.126 0,0 7.132,4.117 19.301,11.142 H 68.854 c -6.018,-3.67 -9.345,-5.699 -9.345,-5.699"
           style="fill:#e43946;fill-opacity:1;fill-rule:nonzero;stroke:none"
           id="path14819"
           inkscape:connector-curvature="0" /><path
           d="m 110.449,222.889 c -0.975,-0.597 -1.515,-1.636 -1.515,-2.702 0,-0.551 0.145,-1.109 0.446,-1.615 0.886,-1.489 2.803,-1.99 4.303,-1.124 0,0 39.183,22.621 64.445,37.208 h -15.794 c -31.667,-19.387 -51.885,-31.767 -51.885,-31.767"
           style="fill:#e43946;fill-opacity:1;fill-rule:nonzero;stroke:none"
           id="path14821"
           inkscape:connector-curvature="0" /><path
           d="m 565.595,370.516 c 0.983,0.593 1.529,1.64 1.529,2.713 0,0.546 -0.141,1.101 -0.439,1.606 -0.883,1.495 -2.805,2 -4.309,1.132 0,0 -6.157,-3.555 -16.705,-9.645 h 12.977 c 4.341,2.621 6.947,4.194 6.947,4.194"
           style="fill:#e43946;fill-opacity:1;fill-rule:nonzero;stroke:none"
           id="path14823"
           inkscape:connector-curvature="0" /><path
           d="m 102.66,233.211 c -0.974,-0.596 -1.514,-1.637 -1.514,-2.702 0,-0.551 0.144,-1.109 0.445,-1.614 0.886,-1.491 2.803,-1.992 4.304,-1.124 0,0 17.94,10.358 46.567,26.885 H 137.704 C 116.003,241.377 102.66,233.211 102.66,233.211"
           style="fill:#e43946;fill-opacity:1;fill-rule:nonzero;stroke:none"
           id="path14825"
           inkscape:connector-curvature="0" /><path
           d="m 553.336,402.563 c 0.972,0.598 1.508,1.634 1.508,2.698 0,0.553 -0.145,1.111 -0.448,1.619 -0.885,1.487 -2.801,1.985 -4.301,1.12 0,0 -34.573,-19.959 -72.188,-41.678 h 16.536 c 35.339,21.747 58.893,36.241 58.893,36.241"
           style="fill:#e43946;fill-opacity:1;fill-rule:nonzero;stroke:none"
           id="path14827"
           inkscape:connector-curvature="0" /><path
           d="m 573.547,367.547 c 0,0.551 -0.144,1.11 -0.446,1.617 -0.886,1.487 -2.803,1.987 -4.303,1.122 0,0 -2.561,-1.479 -6.863,-3.964 h 11.363 c 0.162,0.388 0.249,0.804 0.249,1.225"
           style="fill:#e43946;fill-opacity:1;fill-rule:nonzero;stroke:none"
           id="path14829"
           inkscape:connector-curvature="0" /><path
           d="m 155.925,180.428 c -0.983,-0.593 -1.529,-1.639 -1.529,-2.712 0,-0.547 0.143,-1.102 0.44,-1.606 0.884,-1.496 2.805,-2 4.309,-1.132 0,0 9.038,5.217 24.382,14.078 v 8.046 c -16.519,-9.979 -27.602,-16.674 -27.602,-16.674"
           style="fill:#e43946;fill-opacity:1;fill-rule:nonzero;stroke:none"
           id="path14831"
           inkscape:connector-curvature="0" /><path
           d="m 295.193,253.524 c 0.653,0.376 1.306,0.754 1.96,1.132 h -1.96 z"
           style="fill:#e43946;fill-opacity:1;fill-rule:nonzero;stroke:none"
           id="path14833"
           inkscape:connector-curvature="0" /><path
           d="m 509.736,474.899 c 0.976,0.597 1.514,1.637 1.514,2.704 0,0.55 -0.144,1.107 -0.444,1.614 -0.886,1.489 -2.804,1.99 -4.304,1.123 0,0 -98.305,-56.755 -197.485,-114.018 h 23.292 c 90.806,55.569 177.427,108.577 177.427,108.577"
           style="fill:#e43946;fill-opacity:1;fill-rule:nonzero;stroke:none"
           id="path14835"
           inkscape:connector-curvature="0" /><path
           d="m 178.528,254.656 c -28.203,-16.899 -71.709,-42.967 -71.709,-42.967 -0.99,-0.591 -1.54,-1.64 -1.54,-2.717 0,-0.546 0.14,-1.098 0.437,-1.602 0.882,-1.498 2.807,-2.006 4.312,-1.137 0,0 29.52,17.045 73.499,42.436 v 5.987 z"
           style="fill:#e43946;fill-opacity:1;fill-rule:nonzero;stroke:none"
           id="path14837"
           inkscape:connector-curvature="0" /><path
           d="m 474.148,494.438 c 0.978,0.595 1.518,1.637 1.518,2.704 0,0.55 -0.144,1.107 -0.444,1.613 -0.884,1.49 -2.804,1.992 -4.304,1.125 0,0 -46.324,-26.745 -63.032,-36.391 16.839,10.09 63.08,37.798 63.08,37.798 0.99,0.592 1.539,1.641 1.539,2.718 0,0.545 -0.142,1.098 -0.438,1.601 -0.881,1.499 -2.806,2.006 -4.311,1.137 0,0 -80.753,-46.623 -172.563,-99.63 V 385.29 c 90.039,54.916 178.955,109.148 178.955,109.148"
           style="fill:#e43946;fill-opacity:1;fill-rule:nonzero;stroke:none"
           id="path14839"
           inkscape:connector-curvature="0" /><path
           d="m 183.527,378.611 c -7.002,-4.043 -14.13,-8.158 -21.284,-12.289 h 21.284 z"
           style="fill:#e43946;fill-opacity:1;fill-rule:nonzero;stroke:none"
           id="path14841"
           inkscape:connector-curvature="0" /><path
           d="m 548.022,459.113 c 0.973,0.595 1.511,1.635 1.511,2.701 0,0.55 -0.143,1.108 -0.445,1.616 -0.886,1.487 -2.803,1.988 -4.303,1.122 0,0 -64.542,-37.263 -99.458,-57.422 26.033,15.597 82.271,49.293 82.271,49.293 0.989,0.592 1.538,1.64 1.538,2.718 0,0.546 -0.142,1.097 -0.438,1.602 -0.881,1.497 -2.805,2.005 -4.31,1.136 0,0 -78.17,-45.131 -165.508,-95.557 h 37.697 c 82.786,50.723 151.445,92.791 151.445,92.791"
           style="fill:#e43946;fill-opacity:1;fill-rule:nonzero;stroke:none"
           id="path14843"
           inkscape:connector-curvature="0" /><path
           d="m 308.809,366.322 c 100.026,61.141 199.087,121.693 199.087,121.693 0.976,0.596 1.516,1.637 1.516,2.703 0,0.55 -0.143,1.108 -0.444,1.614 -0.886,1.49 -2.805,1.991 -4.306,1.125 0,0 -96.99,-55.998 -191.055,-110.306 83.589,50.787 172.063,104.541 172.063,104.541 0.98,0.596 1.522,1.639 1.522,2.708 0,0.549 -0.143,1.105 -0.442,1.61 -0.884,1.492 -2.804,1.996 -4.307,1.128 0,0 -92.883,-53.625 -187.25,-108.108 v -18.708 z"
           style="fill:#e43946;fill-opacity:1;fill-rule:nonzero;stroke:none"
           id="path14845"
           inkscape:connector-curvature="0" /><path
           d="m 556.339,389.811 c 0.98,0.595 1.523,1.638 1.523,2.71 0,0.547 -0.142,1.103 -0.442,1.608 -0.884,1.494 -2.805,1.996 -4.306,1.129 0,0 -19.715,-11.382 -50.119,-28.936 h 14.636 c 22.792,13.831 38.708,23.489 38.708,23.489"
           style="fill:#e43946;fill-opacity:1;fill-rule:nonzero;stroke:none"
           id="path14847"
           inkscape:connector-curvature="0" /><path
           d="m 295.193,225.19 v -20.18 c 23.788,13.732 50.309,29.044 76.654,44.256 -26.362,-16.2 -52.858,-32.481 -76.654,-47.104 v -20.063 c 12.956,7.48 26.212,15.132 38.632,22.304 C 321.648,197 308.227,188.839 295.193,180.915 v -9.303 c 11.042,6.375 22.173,12.803 32.083,18.524 -9.838,-5.985 -21.019,-12.785 -32.083,-19.515 v -9.106 c 28.059,16.2 63.733,36.796 99.367,57.369 -36.609,-22.78 -73.604,-45.801 -99.367,-61.83 v -8.85 c 18.127,10.465 41.33,23.861 61.511,35.512 -20.208,-12.429 -43.591,-26.81 -61.511,-37.832 v -8.399 c 27.334,15.781 72.87,42.07 118.4,68.357 -50.103,-31.609 -100.341,-63.303 -118.4,-74.696 v -7.683 c 14.006,8.086 65.271,37.684 116.38,67.191 -43.96,-27.891 -90.556,-57.459 -90.556,-57.459 -0.949,-0.601 -1.471,-1.627 -1.471,-2.675 0,-0.558 0.148,-1.125 0.46,-1.637 0.891,-1.473 2.798,-1.963 4.29,-1.101 0,0 57.807,33.376 113.403,65.476 -29.393,-19.58 -60.228,-40.12 -60.228,-40.12 -0.914,-0.608 -1.41,-1.612 -1.41,-2.637 0,-0.571 0.154,-1.147 0.475,-1.668 0.902,-1.451 2.792,-1.926 4.273,-1.071 l 117.85,68.039 c 1.513,0.874 2.033,2.809 1.159,4.325 -0.875,1.514 -2.811,2.032 -4.324,1.159 0,0 -19.433,-11.221 -32.261,-18.626 29.408,19.589 60.25,40.133 60.25,40.133 0.914,0.608 1.412,1.613 1.412,2.639 0,0.57 -0.155,1.147 -0.477,1.666 -0.901,1.453 -2.792,1.925 -4.272,1.072 0,0 -37.373,-21.578 -67.892,-39.199 26.708,16.947 54.392,34.512 72.001,45.686 h -14.49 c -21.454,-12.385 -51.785,-29.897 -81.702,-47.17 26.475,16.702 52.988,33.429 74.769,47.17 h -17.351 c -7.556,-4.363 -15.075,-8.703 -22.117,-12.769 6.678,4.107 13.701,8.426 20.761,12.769 h -17.209 c -12.977,-7.492 -26.543,-15.324 -39.98,-23.082 12.473,7.761 24.99,15.551 37.094,23.082 H 343.208 c -16.563,-10.165 -32.785,-20.12 -48.015,-29.466"
           style="fill:#e43946;fill-opacity:1;fill-rule:nonzero;stroke:none"
           id="path14849"
           inkscape:connector-curvature="0" /><path
           d="m 132.766,200.495 c -0.985,-0.595 -1.529,-1.639 -1.529,-2.711 0,-0.549 0.142,-1.102 0.44,-1.607 0.882,-1.494 2.805,-2 4.308,-1.132 0,0 21.216,12.25 47.542,27.448 v 8.674 C 154.022,213.34 132.766,200.495 132.766,200.495"
           style="fill:#e43946;fill-opacity:1;fill-rule:nonzero;stroke:none"
           id="path14851"
           inkscape:connector-curvature="0" /><path
           d="m 538.566,477.576 c 0.975,0.597 1.514,1.635 1.514,2.703 0,0.55 -0.142,1.107 -0.445,1.614 -0.886,1.489 -2.803,1.99 -4.304,1.124 0,0 -98.652,-56.958 -202.118,-116.695 h 23.638 c 95.35,58.378 181.715,111.254 181.715,111.254"
           style="fill:#e43946;fill-opacity:1;fill-rule:nonzero;stroke:none"
           id="path14853"
           inkscape:connector-curvature="0" /><path
           d="m 267.277,208.058 v -9.774 c 6.221,3.591 12.101,6.986 17.192,9.926 -5.054,-3.051 -10.946,-6.607 -17.192,-10.377 v -8.942 c 8.702,5.023 18.073,10.434 27.916,16.119 v 20.18 c -9.77,-5.998 -19.132,-11.743 -27.916,-17.132"
           style="fill:#ffffff;fill-opacity:1;fill-rule:nonzero;stroke:none"
           id="path14855"
           inkscape:connector-curvature="0" /><path
           d="m 183.527,220.929 v -8.336 c 8.287,4.784 17.679,10.207 27.917,16.118 v 9.031 c -9.526,-5.736 -19.079,-11.49 -27.917,-16.813"
           style="fill:#ffffff;fill-opacity:1;fill-rule:nonzero;stroke:none"
           id="path14857"
           inkscape:connector-curvature="0" /><path
           d="m 183.527,207.686 v -8.138 c 7.982,4.608 17.564,10.141 27.917,16.118 v 9.034 c -10.59,-6.454 -20.023,-12.202 -27.917,-17.014"
           style="fill:#ffffff;fill-opacity:1;fill-rule:nonzero;stroke:none"
           id="path14859"
           inkscape:connector-curvature="0" /><path
           d="m 267.277,221.813 v -9.933 c 8.906,5.141 18.252,10.538 27.916,16.117 v 10.755 c -9.199,-5.583 -18.615,-11.296 -27.916,-16.939"
           style="fill:#ffffff;fill-opacity:1;fill-rule:nonzero;stroke:none"
           id="path14861"
           inkscape:connector-curvature="0" /><path
           d="m 183.527,170.992 v -7.466 c 4.068,2.35 13.918,8.037 27.917,16.12 v 8.287 c -12.382,-7.513 -22.247,-13.499 -27.917,-16.941"
           style="fill:#ffffff;fill-opacity:1;fill-rule:nonzero;stroke:none"
           id="path14863"
           inkscape:connector-curvature="0" /><path
           d="m 183.527,182.432 v -7.865 c 6.889,3.978 16.536,9.548 27.917,16.119 v 8.925 c -11.295,-6.951 -20.787,-12.793 -27.917,-17.179"
           style="fill:#ffffff;fill-opacity:1;fill-rule:nonzero;stroke:none"
           id="path14865"
           inkscape:connector-curvature="0" /><path
           d="m 183.527,197.102 v -8.046 c 7.797,4.501 17.22,9.941 27.917,16.116 v 8.793 c -10.188,-6.153 -19.72,-11.912 -27.917,-16.863"
           style="fill:#ffffff;fill-opacity:1;fill-rule:nonzero;stroke:none"
           id="path14867"
           inkscape:connector-curvature="0" /><path
           d="m 267.277,233.967 v -11.046 c 9.296,5.366 18.697,10.794 27.916,16.117 v 12.108 c -9.586,-5.899 -18.93,-11.649 -27.916,-17.179"
           style="fill:#ffffff;fill-opacity:1;fill-rule:nonzero;stroke:none"
           id="path14869"
           inkscape:connector-curvature="0" /><path
           d="m 211.444,398.249 v 11.349 c -8.879,-5.127 -18.298,-10.564 -27.917,-16.118 v -13.15 c 9.654,6.197 19.053,12.23 27.917,17.919"
           style="fill:#ffffff;fill-opacity:1;fill-rule:nonzero;stroke:none"
           id="path14871"
           inkscape:connector-curvature="0" /><path
           d="m 295.193,412.014 v 7.891 c -6.515,-3.762 -16.436,-9.49 -27.916,-16.117 v -9.319 c 11.346,7.131 21.008,13.203 27.916,17.545"
           style="fill:#ffffff;fill-opacity:1;fill-rule:nonzero;stroke:none"
           id="path14873"
           inkscape:connector-curvature="0" /><path
           d="m 211.444,382.226 c -9.031,-5.214 -18.318,-10.576 -27.546,-15.904 h 27.546 z"
           style="fill:#ffffff;fill-opacity:1;fill-rule:nonzero;stroke:none"
           id="path14875"
           inkscape:connector-curvature="0" /><path
           d="m 292.132,421.503 c 0.961,0.599 1.492,1.631 1.492,2.69 0,0.555 -0.145,1.115 -0.451,1.625 -0.888,1.482 -2.801,1.977 -4.298,1.113 0,0 -8.338,-4.814 -21.598,-12.47 v -8.436 c 14.424,8.982 24.855,15.478 24.855,15.478"
           style="fill:#ffffff;fill-opacity:1;fill-rule:nonzero;stroke:none"
           id="path14877"
           inkscape:connector-curvature="0" /><path
           d="m 280.108,427.063 c 0.954,0.603 1.476,1.629 1.476,2.681 0,0.558 -0.147,1.121 -0.457,1.633 -0.89,1.476 -2.798,1.968 -4.292,1.104 0,0 -3.468,-2.002 -9.558,-5.518 v -7.998 c 8.027,5.066 12.831,8.098 12.831,8.098"
           style="fill:#ffffff;fill-opacity:1;fill-rule:nonzero;stroke:none"
           id="path14879"
           inkscape:connector-curvature="0" /><path
           d="m 183.527,248.669 c 3.375,1.948 6.833,3.945 10.37,5.987 h -10.37 z"
           style="fill:#ffffff;fill-opacity:1;fill-rule:nonzero;stroke:none"
           id="path14881"
           inkscape:connector-curvature="0" /><path
           d="m 202.209,254.656 c -6.511,-3.988 -12.751,-7.813 -18.682,-11.446 v -9.562 c 8.807,5.085 18.199,10.508 27.917,16.119 v 4.889 z"
           style="fill:#ffffff;fill-opacity:1;fill-rule:nonzero;stroke:none"
           id="path14883"
           inkscape:connector-curvature="0" /><path
           d="m 183.527,231.167 v -8.674 c 8.927,5.154 18.443,10.649 27.917,16.117 v 9.423 c -9.801,-5.923 -19.216,-11.611 -27.917,-16.866"
           style="fill:#ffffff;fill-opacity:1;fill-rule:nonzero;stroke:none"
           id="path14885"
           inkscape:connector-curvature="0" /><path
           d="m 199.529,166.48 c -0.972,-0.597 -1.509,-1.636 -1.509,-2.701 0,-0.551 0.144,-1.109 0.445,-1.617 0.887,-1.487 2.802,-1.987 4.303,-1.123 0,0 3.293,1.903 8.676,5.01 v 7.743 c -7.62,-4.677 -11.915,-7.312 -11.915,-7.312"
           style="fill:#ffffff;fill-opacity:1;fill-rule:nonzero;stroke:none"
           id="path14887"
           inkscape:connector-curvature="0" /><path
           d="m 295.193,366.322 v 18.708 c -2.654,-1.531 -5.309,-3.065 -7.963,-4.597 2.654,1.618 5.309,3.237 7.963,4.857 v 21.823 c -9.217,-5.321 -18.547,-10.707 -27.916,-16.116 v -24.675 z"
           style="fill:#ffffff;fill-opacity:1;fill-rule:nonzero;stroke:none"
           id="path14889"
           inkscape:connector-curvature="0" /><path
           d="m 183.872,366.322 c 9.221,5.821 18.544,11.705 27.572,17.404 v 11.002 c -8.886,-5.13 -18.281,-10.555 -27.917,-16.117 v -12.289 z"
           style="fill:#ffffff;fill-opacity:1;fill-rule:nonzero;stroke:none"
           id="path14891"
           inkscape:connector-curvature="0" /><path
           d="m 211.444,497.249 v 8.008 c -6.073,-3.507 -15.993,-9.234 -27.916,-16.117 v -10.015 c 11.552,7.501 21.251,13.797 27.916,18.124"
           style="fill:#ffffff;fill-opacity:1;fill-rule:nonzero;stroke:none"
           id="path14893"
           inkscape:connector-curvature="0" /><path
           d="m 200.534,503.283 c 0.94,0.603 1.454,1.623 1.454,2.665 0,0.562 -0.149,1.131 -0.463,1.645 -0.893,1.468 -2.796,1.954 -4.286,1.094 0,0 -5.471,-3.16 -13.711,-7.917 v -8.416 c 10.224,6.571 17.006,10.929 17.006,10.929"
           style="fill:#ffffff;fill-opacity:1;fill-rule:nonzero;stroke:none"
           id="path14895"
           inkscape:connector-curvature="0" /><path
           d="m 187.881,506.58 c 0.934,0.606 1.447,1.621 1.447,2.661 0,0.564 -0.152,1.134 -0.467,1.649 -0.895,1.464 -2.795,1.948 -4.282,1.089 0,0 -0.366,-0.211 -1.051,-0.606 v -7.609 c 2.735,1.77 4.353,2.816 4.353,2.816"
           style="fill:#ffffff;fill-opacity:1;fill-rule:nonzero;stroke:none"
           id="path14897"
           inkscape:connector-curvature="0" /><path
           d="m 211.444,472.95 v 8.917 c -6.048,-3.492 -11.981,-6.918 -16.33,-9.429 3.86,2.398 10.186,6.327 16.33,10.143 v 8.075 c -7.229,-4.174 -16.829,-9.718 -27.916,-16.118 v -19.236 c 10.064,6.364 19.608,12.396 27.916,17.648"
           style="fill:#ffffff;fill-opacity:1;fill-rule:nonzero;stroke:none"
           id="path14899"
           inkscape:connector-curvature="0" /><path
           d="m 211.444,427.419 v 27.431 c -8.535,-4.928 -17.951,-10.364 -27.916,-16.118 l -0.001,-29.329 c 9.812,6.333 19.239,12.415 27.917,18.016"
           style="fill:#ffffff;fill-opacity:1;fill-rule:nonzero;stroke:none"
           id="path14901"
           inkscape:connector-curvature="0" /><path
           d="m 211.444,412.343 v 11.013 c -8.842,-5.104 -18.236,-10.529 -27.917,-16.118 v -12.593 c 9.595,6.084 18.995,12.043 27.917,17.698"
           style="fill:#ffffff;fill-opacity:1;fill-rule:nonzero;stroke:none"
           id="path14903"
           inkscape:connector-curvature="0" /><path
           d="m 276.892,453.836 c 0.951,0.602 1.471,1.627 1.471,2.676 0,0.559 -0.148,1.125 -0.458,1.636 -0.892,1.474 -2.799,1.963 -4.291,1.102 0,0 -2.262,-1.306 -6.337,-3.658 v -7.851 c 6.117,3.878 9.615,6.095 9.615,6.095"
           style="fill:#ffffff;fill-opacity:1;fill-rule:nonzero;stroke:none"
           id="path14905"
           inkscape:connector-curvature="0" /><path
           d="m 211.444,460.694 v 8.994 c -7.963,-4.596 -17.621,-10.172 -27.916,-16.116 V 442.62 c 10.475,6.781 19.977,12.934 27.916,18.074"
           style="fill:#ffffff;fill-opacity:1;fill-rule:nonzero;stroke:none"
           id="path14907"
           inkscape:connector-curvature="0" /><path
           d="m 274.118,438.477 c 0.941,0.604 1.456,1.623 1.456,2.667 0,0.561 -0.149,1.128 -0.462,1.643 -0.895,1.468 -2.798,1.954 -4.286,1.095 0,0 -1.253,-0.723 -3.549,-2.049 v -7.747 c 4.393,2.819 6.841,4.391 6.841,4.391"
           style="fill:#ffffff;fill-opacity:1;fill-rule:nonzero;stroke:none"
           id="path14909"
           inkscape:connector-curvature="0" /><path
           d="m 267.277,254.656 v -6.754 c 2.66,1.535 5.278,3.045 7.835,4.522 -2.567,-1.55 -5.184,-3.131 -7.835,-4.733 v -10.284 c 9.023,5.21 18.362,10.602 27.916,16.117 v 1.132 z"
           style="fill:#ffffff;fill-opacity:1;fill-rule:nonzero;stroke:none"
           id="path14911"
           inkscape:connector-curvature="0" /><path
           d="m 288.184,126.724 c -0.953,-0.603 -1.476,-1.629 -1.476,-2.68 0,-0.558 0.146,-1.122 0.455,-1.634 0.891,-1.476 2.799,-1.968 4.293,-1.104 0,0 1.317,0.758 3.737,2.157 v 7.683 c -4.501,-2.84 -7.009,-4.422 -7.009,-4.422"
           style="fill:#ffffff;fill-opacity:1;fill-rule:nonzero;stroke:none"
           id="path14913"
           inkscape:connector-curvature="0" /><path
           d="m 207.395,148.213 c -0.972,-0.598 -1.509,-1.635 -1.509,-2.698 0,-0.552 0.145,-1.111 0.447,-1.619 0.886,-1.487 2.803,-1.987 4.302,-1.121 0,0 0.284,0.164 0.809,0.467 v 7.459 c -2.63,-1.616 -4.049,-2.488 -4.049,-2.488"
           style="fill:#ffffff;fill-opacity:1;fill-rule:nonzero;stroke:none"
           id="path14915"
           inkscape:connector-curvature="0" /><path
           d="m 267.277,163.941 v -8.446 c 8.649,4.993 18.247,10.534 27.916,16.117 v 9.303 c -9.752,-5.93 -19.284,-11.727 -27.916,-16.974"
           style="fill:#ffffff;fill-opacity:1;fill-rule:nonzero;stroke:none"
           id="path14917"
           inkscape:connector-curvature="0" /><path
           d="m 267.277,185.01 v -9.532 c 9.704,5.603 19.183,11.076 27.06,15.623 -7.787,-4.708 -17.317,-10.47 -27.06,-16.36 v -8.761 c 8.829,5.098 18.29,10.56 27.916,16.119 v 20.063 c -9.834,-6.042 -19.206,-11.801 -27.916,-17.152"
           style="fill:#ffffff;fill-opacity:1;fill-rule:nonzero;stroke:none"
           id="path14919"
           inkscape:connector-curvature="0" /><path
           d="m 267.277,153.643 v -8.246 c 7.969,4.601 17.408,10.051 27.916,16.118 v 9.106 c -9.731,-5.918 -19.368,-11.779 -27.916,-16.978"
           style="fill:#ffffff;fill-opacity:1;fill-rule:nonzero;stroke:none"
           id="path14921"
           inkscape:connector-curvature="0" /><path
           d="m 267.277,128.713 v -6.369 c 0.751,-0.171 1.564,-0.073 2.284,0.343 0,0 9.743,5.626 25.632,14.798 v 8.399 c -14.066,-8.652 -24.761,-15.232 -27.916,-17.171"
           style="fill:#ffffff;fill-opacity:1;fill-rule:nonzero;stroke:none"
           id="path14923"
           inkscape:connector-curvature="0" /><path
           d="m 267.277,139.683 v -7.597 c 4.897,2.827 15.144,8.744 27.916,16.118 v 8.85 c -12.279,-7.641 -22.003,-13.693 -27.916,-17.371"
           style="fill:#ffffff;fill-opacity:1;fill-rule:nonzero;stroke:none"
           id="path14925"
           inkscape:connector-curvature="0" /><path
           d="m 205.234,160.38 c -0.984,-0.594 -1.53,-1.64 -1.53,-2.713 0,-0.548 0.142,-1.101 0.441,-1.605 0.882,-1.497 2.805,-2.001 4.307,-1.133 0,0 1.042,0.6 2.992,1.727 v 7.473 c -3.897,-2.353 -6.21,-3.749 -6.21,-3.749"
           style="fill:#ffffff;fill-opacity:1;fill-rule:nonzero;stroke:none"
           id="path14927"
           inkscape:connector-curvature="0" /><path
           d="m 20.375,344.532 c -0.934,-0.604 -1.444,-1.62 -1.444,-2.659 0,-0.564 0.15,-1.135 0.465,-1.65 0.896,-1.464 2.796,-1.948 4.282,-1.089 0,0 28.168,16.262 47.093,27.188 H 54.033 C 33.842,353.25 20.375,344.532 20.375,344.532"
           style="fill:#ffffff;fill-opacity:1;fill-rule:nonzero;stroke:none"
           id="path14929"
           inkscape:connector-curvature="0" /><path
           d="m 32.018,342.138 c -0.969,-0.597 -1.502,-1.633 -1.502,-2.695 0,-0.348 0.065,-0.697 0.183,-1.037 h 7.51 c 1.3,0.751 2.569,1.482 2.701,1.559 -0.316,-0.194 -1.289,-0.789 -2.549,-1.559 h 13.222 c 12.186,7.035 29.195,16.855 48.353,27.916 H 71.139 C 55.926,356.918 32.018,342.138 32.018,342.138"
           style="fill:#ffffff;fill-opacity:1;fill-rule:nonzero;stroke:none"
           id="path14931"
           inkscape:connector-curvature="0" /><path
           d="m 53.628,280.435 c -0.961,-0.599 -1.492,-1.631 -1.492,-2.69 0,-0.554 0.146,-1.116 0.451,-1.625 0.889,-1.481 2.801,-1.976 4.297,-1.113 0,0 4.894,2.825 13.105,7.566 H 57.061 c -2.2,-1.371 -3.433,-2.138 -3.433,-2.138"
           style="fill:#ffffff;fill-opacity:1;fill-rule:nonzero;stroke:none"
           id="path14933"
           inkscape:connector-curvature="0" /><path
           d="m 43.425,281.494 c 0.891,-1.476 2.8,-1.968 4.293,-1.105 0,0 1.358,0.783 3.782,2.184 h -8.475 c 0.066,-0.372 0.194,-0.738 0.4,-1.079"
           style="fill:#ffffff;fill-opacity:1;fill-rule:nonzero;stroke:none"
           id="path14935"
           inkscape:connector-curvature="0" /><path
           d="m 455.994,366.322 h -36.008 c -3.972,-2.294 -7.903,-4.563 -11.757,-6.788 3.706,2.238 7.458,4.506 11.236,6.788 h -18.802 c -15.697,-9.062 -31.94,-18.441 -48.352,-27.916 h 57.876 c 15.599,9.507 31.042,18.918 45.807,27.916"
           style="fill:#ffffff;fill-opacity:1;fill-rule:nonzero;stroke:none"
           id="path14937"
           inkscape:connector-curvature="0" /><path
           d="m 183.322,282.573 c -17.398,-10.647 -32.935,-20.155 -45.618,-27.917 h 14.758 c 13.882,8.015 30.275,17.478 48.354,27.917 z"
           style="fill:#ffffff;fill-opacity:1;fill-rule:nonzero;stroke:none"
           id="path14939"
           inkscape:connector-curvature="0" /><path
           d="m 575.678,344.038 c 0.979,0.596 1.522,1.638 1.522,2.708 0,0.548 -0.142,1.105 -0.442,1.61 -0.884,1.493 -2.805,1.996 -4.308,1.128 0,0 -7.785,-4.496 -19.187,-11.078 h 13.151 c 5.824,3.54 9.264,5.632 9.264,5.632"
           style="fill:#ffffff;fill-opacity:1;fill-rule:nonzero;stroke:none"
           id="path14941"
           inkscape:connector-curvature="0" /><path
           d="M 396.577,366.322 H 358.88 c -11.76,-6.788 -23.686,-13.674 -35.609,-20.558 11.234,6.878 22.467,13.755 33.58,20.558 h -23.638 c -5.323,-3.072 -10.657,-6.152 -15.991,-9.232 5.032,3.08 10.065,6.16 15.087,9.232 h -23.292 c -1.246,-0.718 -2.49,-1.437 -3.735,-2.155 1.177,0.718 2.352,1.437 3.527,2.155 h -13.616 -27.916 v -17.23 c 7.221,4.169 14.475,8.357 21.728,12.545 -7.255,-4.434 -14.509,-8.869 -21.728,-13.282 v -9.949 h 6.047 c 7.265,4.195 14.567,8.409 21.867,12.625 -6.887,-4.215 -13.775,-8.43 -20.63,-12.625 h 22.96 c 9.358,5.403 18.785,10.844 28.212,16.288 -8.889,-5.442 -17.777,-10.884 -26.604,-16.288 h 51.887 c 15.432,9.456 30.723,18.824 45.561,27.916"
           style="fill:#ffffff;fill-opacity:1;fill-rule:nonzero;stroke:none"
           id="path14943"
           inkscape:connector-curvature="0" /><path
           d="M 61.833,338.406 H 76.97 c 13.822,7.98 30.762,17.762 48.351,27.916 H 105.093 C 88.286,355.477 73.18,345.729 61.833,338.406"
           style="fill:#ffffff;fill-opacity:1;fill-rule:nonzero;stroke:none"
           id="path14945"
           inkscape:connector-curvature="0" /><path
           d="m 82.994,338.406 h 17.801 c 15.098,8.716 31.626,18.259 48.354,27.916 H 127.028 C 111.532,356.498 96.452,346.938 82.994,338.406"
           style="fill:#ffffff;fill-opacity:1;fill-rule:nonzero;stroke:none"
           id="path14947"
           inkscape:connector-curvature="0" /><path
           d="m 566.248,348.09 c 0.984,0.595 1.528,1.64 1.528,2.712 0,0.548 -0.141,1.102 -0.44,1.607 -0.883,1.495 -2.805,2 -4.309,1.132 0,0 -9.957,-5.75 -26.214,-15.135 h 13.415 c 9.582,5.792 16.02,9.684 16.02,9.684"
           style="fill:#ffffff;fill-opacity:1;fill-rule:nonzero;stroke:none"
           id="path14949"
           inkscape:connector-curvature="0" /><path
           d="m 113.985,254.656 h 14.281 c 13.525,7.809 29.979,17.309 48.353,27.917 h -16.962 c -17.919,-10.953 -33.522,-20.49 -45.672,-27.917"
           style="fill:#ffffff;fill-opacity:1;fill-rule:nonzero;stroke:none"
           id="path14951"
           inkscape:connector-curvature="0" /><path
           d="m 558.648,366.322 h -12.977 c -11.588,-6.69 -28.476,-16.44 -48.354,-27.916 H 512.4 c 17.712,10.691 36.429,21.99 46.248,27.916"
           style="fill:#ffffff;fill-opacity:1;fill-rule:nonzero;stroke:none"
           id="path14953"
           inkscape:connector-curvature="0" /><path
           d="m 542.795,266.42 c 0.948,0.601 1.469,1.627 1.469,2.676 0,0.557 -0.149,1.125 -0.458,1.635 -0.892,1.474 -2.798,1.964 -4.291,1.103 0,0 -11.751,-6.785 -29.75,-17.178 h 14.49 c 11.367,7.212 18.54,11.764 18.54,11.764"
           style="fill:#ffffff;fill-opacity:1;fill-rule:nonzero;stroke:none"
           id="path14955"
           inkscape:connector-curvature="0" /><path
           d="m 494.443,366.322 h -16.536 c -15.245,-8.8 -30.988,-17.89 -45.135,-26.057 13.611,8.221 28.561,17.252 43.139,26.057 h -16.182 c -15.401,-8.89 -31.802,-18.36 -48.354,-27.916 h 37.702 c 16.419,10.105 31.766,19.547 45.366,27.916"
           style="fill:#ffffff;fill-opacity:1;fill-rule:nonzero;stroke:none"
           id="path14957"
           inkscape:connector-curvature="0" /><path
           d="m 300.899,254.656 h 40.469 c 10.273,5.933 20.669,11.934 31.061,17.934 -9.771,-5.997 -19.555,-12 -29.221,-17.934 H 464.03 c 16.038,9.982 31.349,19.506 44.865,27.917 h -16.684 c -5.438,-3.14 -10.657,-6.154 -15.392,-8.886 4.623,2.812 9.545,5.804 14.61,8.886 h -16.71 c -0.917,-0.529 -1.826,-1.054 -2.723,-1.573 0.856,0.521 1.72,1.046 2.585,1.573 h -34.473 c -10.731,-6.196 -21.645,-12.497 -32.51,-18.77 10.215,6.277 20.454,12.568 30.546,18.77 h -91.88 c -15.361,-9.453 -30.618,-18.842 -45.365,-27.917"
           style="fill:#ffffff;fill-opacity:1;fill-rule:nonzero;stroke:none"
           id="path14959"
           inkscape:connector-curvature="0" /><path
           d="m 53.089,267.332 c -0.955,-0.6 -1.482,-1.629 -1.482,-2.682 0,-0.558 0.147,-1.121 0.456,-1.631 0.889,-1.477 2.799,-1.97 4.293,-1.109 0,0 16.883,9.749 35.788,20.663 H 77.338 C 62.535,273.269 53.089,267.332 53.089,267.332"
           style="fill:#ffffff;fill-opacity:1;fill-rule:nonzero;stroke:none"
           id="path14961"
           inkscape:connector-curvature="0" /><path
           d="m 267.277,258.727 v -4.071 h 27.916 1.96 c 15.708,9.069 31.975,18.46 48.354,27.917 h -39.101 c -13.341,-8.13 -26.493,-16.146 -39.129,-23.846"
           style="fill:#ffffff;fill-opacity:1;fill-rule:nonzero;stroke:none"
           id="path14963"
           inkscape:connector-curvature="0" /><path
           d="m 473.765,338.406 h 18.01 c 17.032,10.453 32.53,19.964 45.489,27.916 h -15.146 c -14.581,-8.418 -31.187,-18.005 -48.353,-27.916"
           style="fill:#ffffff;fill-opacity:1;fill-rule:nonzero;stroke:none"
           id="path14965"
           inkscape:connector-curvature="0" /><path
           d="m 517.631,366.322 h -14.636 c -14.114,-8.148 -30.532,-17.628 -48.353,-27.916 h 16.982 c 16.505,10.015 32.467,19.7 46.007,27.916"
           style="fill:#ffffff;fill-opacity:1;fill-rule:nonzero;stroke:none"
           id="path14967"
           inkscape:connector-curvature="0" /><path
           d="m 68.854,254.656 h 13.187 c 11.931,6.889 28.706,16.573 48.353,27.917 h -15.77 C 94.375,270.223 78.298,260.418 68.854,254.656"
           style="fill:#ffffff;fill-opacity:1;fill-rule:nonzero;stroke:none"
           id="path14969"
           inkscape:connector-curvature="0" /><path
           d="m 572.038,364.847 c 0.588,0.361 1.011,0.884 1.26,1.475 h -11.363 c -10.073,-5.815 -29.688,-17.139 -48.353,-27.916 h 15.426 c 26.093,16.033 43.03,26.441 43.03,26.441"
           style="fill:#ffffff;fill-opacity:1;fill-rule:nonzero;stroke:none"
           id="path14971"
           inkscape:connector-curvature="0" /><path
           d="m 547.082,282.573 h -13.247 c -12.481,-7.206 -30.522,-17.622 -48.354,-27.917 h 17.351 c 19.936,12.577 35.904,22.651 44.25,27.917"
           style="fill:#ffffff;fill-opacity:1;fill-rule:nonzero;stroke:none"
           id="path14973"
           inkscape:connector-curvature="0" /><path
           d="m 529.514,282.573 h -14.243 c -13.743,-7.934 -30.488,-17.601 -48.355,-27.917 h 17.209 c 16.202,9.965 32.586,20.042 45.389,27.917"
           style="fill:#ffffff;fill-opacity:1;fill-rule:nonzero;stroke:none"
           id="path14975"
           inkscape:connector-curvature="0" /><path
           d="m 70.052,268.443 c -0.989,-0.593 -1.537,-1.642 -1.537,-2.717 0,-0.546 0.14,-1.099 0.437,-1.603 0.881,-1.499 2.806,-2.007 4.31,-1.138 0,0 13.042,7.531 33.926,19.588 H 93.635 c -12.932,-7.749 -23.583,-14.13 -23.583,-14.13"
           style="fill:#ffffff;fill-opacity:1;fill-rule:nonzero;stroke:none"
           id="path14977"
           inkscape:connector-curvature="0" /><path
           d="m 16.028,356.898 v -6.079 c 0.839,-0.29 1.792,-0.229 2.618,0.248 0,0 10.301,5.947 26.423,15.255 H 30.935 c -7.753,-4.902 -13.122,-8.295 -14.907,-9.424"
           style="fill:#ffffff;fill-opacity:1;fill-rule:nonzero;stroke:none"
           id="path14979"
           inkscape:connector-curvature="0" /><path
           d="m 89.928,254.656 h 13.78 c 13.067,7.544 29.555,17.063 48.354,27.917 H 135.875 C 117.526,271.423 101.65,261.778 89.928,254.656"
           style="fill:#ffffff;fill-opacity:1;fill-rule:nonzero;stroke:none"
           id="path14981"
           inkscape:connector-curvature="0" /><path
           d="m 211.444,341.625 c -1.763,-1.077 -3.523,-2.149 -5.277,-3.219 h 5.277 z"
           style="fill:#ffffff;fill-opacity:1;fill-rule:nonzero;stroke:none"
           id="path14983"
           inkscape:connector-curvature="0" /><path
           d="m 199.366,351.788 c 4.022,2.528 8.056,5.063 12.078,7.591 v 6.943 h -27.546 c -0.103,-0.058 -0.205,-0.117 -0.307,-0.177 0.094,0.06 0.187,0.119 0.281,0.177 h -0.345 -21.284 c -1.791,-1.035 -3.584,-2.07 -5.379,-3.105 1.614,1.035 3.227,2.07 4.839,3.105 h -11.721 c -14.987,-9.62 -29.814,-19.136 -43.493,-27.916 h 20.062 c 4.801,2.772 9.626,5.557 14.42,8.325 -4.386,-2.769 -8.797,-5.553 -13.189,-8.325 h 76.113 c 2.505,1.447 5.023,2.9 7.549,4.359 v 15.996 c -4.047,-2.336 -8.074,-4.661 -12.078,-6.973"
           style="fill:#ffffff;fill-opacity:1;fill-rule:nonzero;stroke:none"
           id="path14985"
           inkscape:connector-curvature="0" /><path
           d="m 211.444,260.314 c -3.132,-1.919 -6.213,-3.805 -9.235,-5.658 h 9.235 z"
           style="fill:#ffffff;fill-opacity:1;fill-rule:nonzero;stroke:none"
           id="path14987"
           inkscape:connector-curvature="0" /><path
           d="m 207.933,282.573 c -16.804,-10.289 -32.222,-19.727 -45.599,-27.917 h 15.794 c 4.104,2.369 7.841,4.527 10.982,6.34 -3.139,-1.879 -6.718,-4.025 -10.582,-6.34 h 4.999 10.37 c 5.659,3.267 11.517,6.649 17.547,10.131 v 17.786 z"
           style="fill:#ffffff;fill-opacity:1;fill-rule:nonzero;stroke:none"
           id="path14989"
           inkscape:connector-curvature="0" /><path
           d="m 267.277,282.001 c 0.33,0.191 0.66,0.382 0.989,0.572 h -0.989 z"
           style="fill:#ffffff;fill-opacity:1;fill-rule:nonzero;stroke:none"
           id="path14991"
           inkscape:connector-curvature="0" /><path
           d="m 268.61,282.573 c -0.444,-0.269 -0.889,-0.537 -1.333,-0.804 v -20.823 c 12.152,7.016 24.719,14.273 37.457,21.627 z"
           style="fill:#ffffff;fill-opacity:1;fill-rule:nonzero;stroke:none"
           id="path14993"
           inkscape:connector-curvature="0" /><path
           d="m 267.277,390.997 c -18.634,-10.759 -37.43,-21.61 -55.833,-32.236 v -15.996 c 11.57,6.679 23.318,13.461 35.005,20.209 -11.709,-7.141 -23.442,-14.296 -35.005,-21.349 v -3.219 H 227.1 c 4.496,2.596 8.995,5.194 13.481,7.783 -4.262,-2.588 -8.537,-5.187 -12.811,-7.783 h 20.998 c 6.132,3.54 12.308,7.106 18.509,10.686 v 17.23 z"
           style="fill:#264c86;fill-opacity:1;fill-rule:nonzero;stroke:none"
           id="path14995"
           inkscape:connector-curvature="0" /><path
           d="m 260.887,135.705 c -0.963,-0.599 -1.493,-1.631 -1.493,-2.689 0,-0.554 0.146,-1.116 0.451,-1.625 0.888,-1.482 2.801,-1.977 4.297,-1.115 0,0 1.116,0.645 3.135,1.81 v 7.597 c -4.112,-2.56 -6.39,-3.978 -6.39,-3.978"
           style="fill:#264c86;fill-opacity:1;fill-rule:nonzero;stroke:none"
           id="path14997"
           inkscape:connector-curvature="0" /><path
           d="m 267.277,418.965 v 7.998 c -11.315,-6.532 -31.699,-18.301 -55.833,-32.235 v -11.002 c 22.509,14.207 43.179,27.253 55.833,35.239"
           style="fill:#264c86;fill-opacity:1;fill-rule:nonzero;stroke:none"
           id="path14999"
           inkscape:connector-curvature="0" /><path
           d="m 237.029,135.242 c -0.98,-0.595 -1.522,-1.638 -1.522,-2.707 0,-0.549 0.144,-1.104 0.444,-1.611 0.883,-1.492 2.803,-1.994 4.305,-1.127 0,0 10.261,5.924 27.021,15.6 v 8.246 c -17.375,-10.571 -30.248,-18.401 -30.248,-18.401"
           style="fill:#264c86;fill-opacity:1;fill-rule:nonzero;stroke:none"
           id="path15001"
           inkscape:connector-curvature="0" /><path
           d="m 221.225,503.599 c 0.933,0.605 1.442,1.619 1.442,2.657 0,0.564 -0.151,1.136 -0.467,1.651 -0.895,1.464 -2.795,1.946 -4.281,1.088 0,0 -2.351,-1.358 -6.475,-3.738 v -8.008 c 6.204,4.028 9.781,6.35 9.781,6.35"
           style="fill:#264c86;fill-opacity:1;fill-rule:nonzero;stroke:none"
           id="path15003"
           inkscape:connector-curvature="0" /><path
           d="m 230.157,141.372 c -0.979,-0.595 -1.522,-1.638 -1.522,-2.706 0,-0.55 0.144,-1.105 0.444,-1.611 0.883,-1.493 2.803,-1.995 4.304,-1.127 0,0 14.576,8.414 33.894,19.567 v 8.446 c -21.31,-12.956 -37.12,-22.569 -37.12,-22.569"
           style="fill:#264c86;fill-opacity:1;fill-rule:nonzero;stroke:none"
           id="path15005"
           inkscape:connector-curvature="0" /><path
           d="m 240.774,491.494 c 0.952,0.601 1.475,1.627 1.475,2.678 0,0.557 -0.148,1.122 -0.457,1.635 -0.892,1.475 -2.799,1.965 -4.292,1.103 0,0 -13.286,-7.671 -26.056,-15.043 v -8.917 c 17.365,10.98 29.33,18.544 29.33,18.544"
           style="fill:#264c86;fill-opacity:1;fill-rule:nonzero;stroke:none"
           id="path15007"
           inkscape:connector-curvature="0" /><path
           d="m 266.319,128.124 c -0.971,-0.597 -1.508,-1.635 -1.508,-2.699 0,-0.552 0.144,-1.111 0.446,-1.618 0.462,-0.774 1.205,-1.278 2.02,-1.463 v 6.369 c -0.625,-0.385 -0.958,-0.589 -0.958,-0.589"
           style="fill:#264c86;fill-opacity:1;fill-rule:nonzero;stroke:none"
           id="path15009"
           inkscape:connector-curvature="0" /><path
           d="m 267.277,447.741 v 7.851 c -9.92,-5.728 -30.621,-17.679 -55.833,-32.236 v -11.013 c 23.962,15.193 44.444,28.177 55.833,35.398"
           style="fill:#264c86;fill-opacity:1;fill-rule:nonzero;stroke:none"
           id="path15011"
           inkscape:connector-curvature="0" /><path
           d="m 235.568,476.312 c 0.934,0.605 1.446,1.622 1.446,2.66 0,0.564 -0.15,1.134 -0.466,1.649 -0.896,1.464 -2.796,1.948 -4.283,1.089 0,0 -8.316,-4.801 -20.821,-12.022 v -8.994 c 14.782,9.569 24.124,15.618 24.124,15.618"
           style="fill:#264c86;fill-opacity:1;fill-rule:nonzero;stroke:none"
           id="path15013"
           inkscape:connector-curvature="0" /><path
           d="m 267.277,434.086 v 7.747 c -8.172,-4.718 -29.659,-17.124 -55.833,-32.235 v -11.349 c 24.934,16.004 45.632,29.29 55.833,35.837"
           style="fill:#264c86;fill-opacity:1;fill-rule:nonzero;stroke:none"
           id="path15015"
           inkscape:connector-curvature="0" /><path
           d="m 259.805,458.628 c 0.936,0.604 1.449,1.622 1.449,2.662 0,0.563 -0.15,1.133 -0.465,1.648 -0.895,1.465 -2.795,1.949 -4.284,1.09 0,0 -10.896,-6.292 -12.119,-6.997 1.203,0.736 11.933,7.301 11.933,7.301 0.975,0.596 1.514,1.636 1.514,2.704 0,0.549 -0.143,1.106 -0.444,1.613 -0.886,1.489 -2.803,1.991 -4.305,1.124 0,0 -27.468,-15.859 -38.594,-22.282 14.118,8.727 44.368,27.426 44.368,27.426 0.968,0.598 1.502,1.634 1.502,2.695 0,0.553 -0.144,1.113 -0.448,1.621 -0.888,1.485 -2.803,1.983 -4.3,1.118 0,0 -17.925,-10.351 -44.168,-25.501 v -27.431 c 28.107,18.139 48.361,31.209 48.361,31.209"
           style="fill:#264c86;fill-opacity:1;fill-rule:nonzero;stroke:none"
           id="path15017"
           inkscape:connector-curvature="0" /><path
           d="m 228.952,493.456 c 0.964,0.599 1.495,1.632 1.495,2.691 0,0.554 -0.146,1.115 -0.451,1.624 -0.888,1.483 -2.801,1.979 -4.297,1.115 0,0 -5.316,-3.07 -14.255,-8.23 v -8.075 c 8.947,5.557 17.508,10.875 17.508,10.875"
           style="fill:#264c86;fill-opacity:1;fill-rule:nonzero;stroke:none"
           id="path15019"
           inkscape:connector-curvature="0" /><path
           d="m 211.444,187.933 v -8.287 c 14.677,8.473 33.915,19.581 55.833,32.234 v 9.933 c -20.33,-12.338 -40.104,-24.336 -55.833,-33.88"
           style="fill:#264c86;fill-opacity:1;fill-rule:nonzero;stroke:none"
           id="path15021"
           inkscape:connector-curvature="0" /><path
           d="m 211.444,173.792 v -7.743 c 12.395,7.156 35.878,20.714 55.833,32.235 v 9.774 c -24.213,-14.86 -44.021,-27.017 -55.833,-34.266"
           style="fill:#264c86;fill-opacity:1;fill-rule:nonzero;stroke:none"
           id="path15023"
           inkscape:connector-curvature="0" /><path
           d="m 211.444,150.701 v -7.459 c 4.866,2.81 31.08,17.945 55.833,32.236 v 9.532 c -26.921,-16.543 -47.504,-29.19 -55.833,-34.309"
           style="fill:#264c86;fill-opacity:1;fill-rule:nonzero;stroke:none"
           id="path15025"
           inkscape:connector-curvature="0" /><path
           d="m 211.444,164.129 v -7.473 c 7.447,4.299 28.249,16.31 55.833,32.235 v 8.942 c -20.435,-12.337 -44.663,-26.962 -55.833,-33.704"
           style="fill:#264c86;fill-opacity:1;fill-rule:nonzero;stroke:none"
           id="path15027"
           inkscape:connector-curvature="0" /><path
           d="m 211.444,213.965 v -8.793 c 16.128,9.312 35.148,20.293 55.833,32.235 v 10.284 C 249.131,236.73 229.291,224.746 211.444,213.965"
           style="fill:#264c86;fill-opacity:1;fill-rule:nonzero;stroke:none"
           id="path15029"
           inkscape:connector-curvature="0" /><path
           d="m 213.931,142.491 c -0.983,-0.595 -1.528,-1.64 -1.528,-2.712 0,-0.548 0.141,-1.102 0.44,-1.608 0.883,-1.494 2.805,-1.998 4.309,-1.131 0,0 21.82,12.599 50.125,28.94 v 8.761 c -25.927,-15.675 -53.346,-32.25 -53.346,-32.25"
           style="fill:#264c86;fill-opacity:1;fill-rule:nonzero;stroke:none"
           id="path15031"
           inkscape:connector-curvature="0" /><path
           d="m 211.444,199.611 v -8.925 c 16.13,9.312 35.727,20.627 55.833,32.235 v 11.046 C 246.2,220.997 227.093,209.239 211.444,199.611"
           style="fill:#264c86;fill-opacity:1;fill-rule:nonzero;stroke:none"
           id="path15033"
           inkscape:connector-curvature="0" /><path
           d="m 211.444,264.787 c 9.85,5.687 20.158,11.638 30.806,17.786 h -30.806 z"
           style="fill:#264c86;fill-opacity:1;fill-rule:nonzero;stroke:none"
           id="path15035"
           inkscape:connector-curvature="0" /><path
           d="m 247.772,282.573 c -12.675,-7.766 -24.857,-15.231 -36.328,-22.259 v -5.658 -4.889 c 18.064,10.429 37.24,21.5 55.833,32.234 v 0.572 z"
           style="fill:#264c86;fill-opacity:1;fill-rule:nonzero;stroke:none"
           id="path15037"
           inkscape:connector-curvature="0" /><path
           d="m 211.444,248.033 v -9.423 c 12.151,7.016 24.234,13.994 34.927,20.166 -10.543,-6.349 -22.712,-13.677 -34.927,-21.034 v -9.031 c 16.723,9.655 35.705,20.614 55.833,32.235 v 20.823 c -18.53,-11.198 -37.829,-22.857 -55.833,-33.736"
           style="fill:#264c86;fill-opacity:1;fill-rule:nonzero;stroke:none"
           id="path15039"
           inkscape:connector-curvature="0" /><path
           d="M 267.277,258.727 C 246.847,246.276 227.771,234.649 211.444,224.7 v -9.034 c 17.785,10.268 37.82,21.836 55.833,32.236 v 6.754 z"
           style="fill:#264c86;fill-opacity:1;fill-rule:nonzero;stroke:none"
           id="path15041"
           inkscape:connector-curvature="0" /><path
           d="m 267.277,348.355 c -5.452,-3.332 -10.884,-6.652 -16.277,-9.949 h 16.277 z"
           style="fill:#264c86;fill-opacity:1;fill-rule:nonzero;stroke:none"
           id="path15043"
           inkscape:connector-curvature="0" /><path
           d="m 211.444,359.379 c 19.968,12.549 39.618,24.898 55.833,35.09 v 9.319 c -15.139,-8.741 -32.984,-19.044 -49.293,-28.459 16.086,10.017 34.726,21.625 49.293,30.696 v 8.436 c -14.305,-8.258 -34.341,-19.826 -55.833,-32.235 v -15.904 z"
           style="fill:#264c86;fill-opacity:1;fill-rule:nonzero;stroke:none"
           id="path15045"
           inkscape:connector-curvature="0" /><path
           d="m 429.663,312.944 c 13.606,8.255 27.975,16.975 41.961,25.462 h -16.982 c -27.767,-16.031 -58.939,-34.029 -90.105,-52.022 29.101,17.908 58.202,35.816 84.54,52.022 h -37.702 c -7.528,-4.347 -15.088,-8.712 -22.598,-13.047 7.136,4.349 14.289,8.707 21.41,13.047 h -57.876 c -7.458,-4.305 -14.95,-8.631 -22.443,-12.957 7.058,4.325 14.117,8.651 21.148,12.957 H 299.129 C 266.948,318.704 235.57,299.494 207.933,282.573 h 3.511 30.806 c 30.107,17.382 62.922,36.328 95.705,55.255 -30.877,-18.918 -61.766,-37.844 -90.183,-55.255 h 19.505 0.989 c 2.594,1.497 5.178,2.989 7.742,4.47 -2.447,-1.48 -4.916,-2.972 -7.398,-4.47 h 36.124 c 10.512,6.069 21.138,12.203 31.744,18.326 -10.037,-6.117 -20.106,-12.253 -30.072,-18.326 h 39.101 c 4.081,2.357 8.168,4.715 12.257,7.076 -3.834,-2.361 -7.67,-4.719 -11.5,-7.076 h 91.88 c 34.057,20.927 66.462,40.839 90.864,55.833 h -15.426 c -9.805,-5.66 -19.346,-11.169 -27.105,-15.649 7.357,4.441 16.498,9.959 25.923,15.649 h -15.083 c -27.511,-15.884 -60.735,-35.066 -93.519,-53.993 30.514,18.727 61.147,37.527 87.977,53.993 h -18.01 c -14.601,-8.43 -29.604,-17.091 -44.102,-25.462"
           style="fill:#264c86;fill-opacity:1;fill-rule:nonzero;stroke:none"
           id="path15047"
           inkscape:connector-curvature="0" /><path
           d="m 40.75,324.801 c -0.936,-0.604 -1.448,-1.623 -1.448,-2.663 0,-0.562 0.15,-1.132 0.464,-1.647 0.895,-1.465 2.796,-1.949 4.284,-1.092 0,0 13.326,7.694 32.92,19.007 H 61.833 C 48.82,330.008 40.75,324.801 40.75,324.801"
           style="fill:#264c86;fill-opacity:1;fill-rule:nonzero;stroke:none"
           id="path15049"
           inkscape:connector-curvature="0" /><path
           d="m 553.753,297.481 c 0.97,0.597 1.507,1.636 1.507,2.699 0,0.552 -0.145,1.111 -0.447,1.618 -0.886,1.487 -2.803,1.987 -4.301,1.121 0,0 -14.052,-8.112 -35.241,-20.346 h 14.243 c 14.378,8.844 24.239,14.908 24.239,14.908"
           style="fill:#264c86;fill-opacity:1;fill-rule:nonzero;stroke:none"
           id="path15051"
           inkscape:connector-curvature="0" /><path
           d="m 30.964,337.823 c 0.887,-1.485 2.803,-1.983 4.3,-1.118 0,0 1.493,0.862 2.945,1.701 h -7.51 c 0.07,-0.199 0.152,-0.395 0.265,-0.583"
           style="fill:#264c86;fill-opacity:1;fill-rule:nonzero;stroke:none"
           id="path15053"
           inkscape:connector-curvature="0" /><path
           d="m 28.948,332.646 c -0.975,-0.595 -1.514,-1.635 -1.514,-2.703 0,-0.55 0.144,-1.107 0.445,-1.614 0.886,-1.489 2.803,-1.99 4.304,-1.123 0,0 7.337,4.236 19.4,11.2 H 38.361 c -3.553,-2.175 -9.413,-5.76 -9.413,-5.76"
           style="fill:#264c86;fill-opacity:1;fill-rule:nonzero;stroke:none"
           id="path15055"
           inkscape:connector-curvature="0" /><path
           d="m 30.533,305.147 c -0.95,-0.602 -1.472,-1.627 -1.472,-2.677 0,-0.558 0.148,-1.124 0.458,-1.636 0.892,-1.474 2.798,-1.964 4.291,-1.102 0,0 28.937,16.707 66.985,38.674 H 82.994 C 52.637,319.161 30.533,305.147 30.533,305.147"
           style="fill:#264c86;fill-opacity:1;fill-rule:nonzero;stroke:none"
           id="path15057"
           inkscape:connector-curvature="0" /><path
           d="m 553.432,286.579 c 0.952,0.601 1.477,1.629 1.477,2.68 0,0.557 -0.147,1.122 -0.456,1.634 -0.891,1.474 -2.799,1.965 -4.293,1.105 0,0 -6.407,-3.699 -16.325,-9.425 h 13.247 c 4.087,2.579 6.35,4.006 6.35,4.006"
           style="fill:#264c86;fill-opacity:1;fill-rule:nonzero;stroke:none"
           id="path15059"
           inkscape:connector-curvature="0" /><path
           d="m 40.188,295.851 c -0.94,-0.606 -1.457,-1.624 -1.457,-2.667 0,-0.562 0.15,-1.131 0.463,-1.645 0.894,-1.468 2.796,-1.953 4.285,-1.096 0,0 40.569,23.424 83.072,47.963 H 106.489 C 69.038,314.368 40.188,295.851 40.188,295.851"
           style="fill:#264c86;fill-opacity:1;fill-rule:nonzero;stroke:none"
           id="path15061"
           inkscape:connector-curvature="0" /><path
           d="m 566.414,338.406 h -13.151 c -18.867,-10.893 -47.637,-27.503 -67.421,-38.927 18.472,11.169 46.757,28.268 64.386,38.927 h -13.415 c -23.03,-13.297 -58.712,-33.898 -96.705,-55.833 h 34.473 c 32.896,19.999 73.81,44.873 91.833,55.833"
           style="fill:#264c86;fill-opacity:1;fill-rule:nonzero;stroke:none"
           id="path15063"
           inkscape:connector-curvature="0" /><path
           d="m 127.782,338.406 c -42.552,-26.856 -83.337,-52.6 -83.337,-52.6 -0.951,-0.601 -1.476,-1.628 -1.476,-2.679 0,-0.185 0.023,-0.37 0.056,-0.554 H 51.5 c 11.515,6.647 47.142,27.217 76.284,44.041 C 101.235,310.082 67.735,289.22 57.061,282.573 h 12.928 c 18.887,10.905 55.349,31.956 90.345,52.161 -30.71,-19.301 -62.162,-39.067 -82.996,-52.161 h 14.806 c 14.77,8.528 30.773,17.767 40.919,23.624 -8.736,-5.235 -25.422,-15.231 -39.428,-23.624 h 13.553 c 24.329,14.045 59.303,34.238 96.707,55.833 z"
           style="fill:#264c86;fill-opacity:1;fill-rule:nonzero;stroke:none"
           id="path15065"
           inkscape:connector-curvature="0" /><path
           d="m 567.09,328.593 c 0.979,0.596 1.52,1.639 1.52,2.707 0,0.55 -0.142,1.106 -0.442,1.613 -0.884,1.49 -2.804,1.994 -4.307,1.126 0,0 -52.538,-30.332 -89.142,-51.466 h 16.71 c 34.478,20.971 75.661,46.02 75.661,46.02"
           style="fill:#264c86;fill-opacity:1;fill-rule:nonzero;stroke:none"
           id="path15067"
           inkscape:connector-curvature="0" /><path
           d="m 560.647,314.776 c 0.964,0.599 1.495,1.633 1.495,2.691 0,0.555 -0.146,1.115 -0.453,1.625 -0.888,1.482 -2.799,1.977 -4.296,1.113 0,0 -35.778,-20.656 -65.182,-37.632 h 16.684 c 30.43,18.936 51.752,32.203 51.752,32.203"
           style="fill:#264c86;fill-opacity:1;fill-rule:nonzero;stroke:none"
           id="path15069"
           inkscape:connector-curvature="0" /><path
           d="M 206.167,338.406 C 172.301,317.75 140.148,298.14 114.624,282.573 h 15.77 c 28.253,16.311 62.443,36.052 96.706,55.833 h -15.656 z"
           style="fill:#264c86;fill-opacity:1;fill-rule:nonzero;stroke:none"
           id="path15071"
           inkscape:connector-curvature="0" /><path
           d="m 274.561,338.406 c -32.424,-19.842 -64.095,-39.223 -91.239,-55.833 h 17.494 c 29.028,16.759 62.403,36.028 96.705,55.833 z"
           style="fill:#264c86;fill-opacity:1;fill-rule:nonzero;stroke:none"
           id="path15073"
           inkscape:connector-curvature="0" /><path
           d="m 251,338.406 c -33.074,-20.215 -64.757,-39.583 -91.343,-55.833 h 16.962 c 28.817,16.637 62.353,36 96.705,55.833 h -6.047 z"
           style="fill:#264c86;fill-opacity:1;fill-rule:nonzero;stroke:none"
           id="path15075"
           inkscape:connector-curvature="0" /><path
           d="m 135.875,282.573 h 16.187 c 28.273,16.323 61.769,35.662 96.706,55.833 H 227.77 c -32.411,-19.692 -64.84,-39.395 -91.895,-55.833"
           style="fill:#264c86;fill-opacity:1;fill-rule:nonzero;stroke:none"
           id="path15077"
           inkscape:connector-curvature="0" /></g></g></g></svg>